<?xml version="1.0" encoding="UTF-8"?>
<!DOCTYPE svg PUBLIC "-//W3C//DTD SVG 1.1//EN" "http://www.w3.org/Graphics/SVG/1.1/DTD/svg11.dtd">
<svg xmlns="http://www.w3.org/2000/svg" version="1.1" width="100px" height="100px" style="shape-rendering:geometricPrecision; text-rendering:geometricPrecision; image-rendering:optimizeQuality; fill-rule:evenodd; clip-rule:evenodd" xmlns:xlink="http://www.w3.org/1999/xlink">
<g><path style="opacity:0.952" fill="#ba84e8" d="M 34.5,1.5 C 44.6474,0.914701 54.6474,1.74803 64.5,4C 78.5994,10.6768 86.4327,21.8434 88,37.5C 91,42.8333 94,48.1667 97,53.5C 97.6667,55.8333 97.6667,58.1667 97,60.5C 94.4136,62.5448 91.5802,64.2115 88.5,65.5C 87.8649,71.5492 87.0316,77.5492 86,83.5C 80.9137,90.454 74.0803,93.1207 65.5,91.5C 65.5,93.5 65.5,95.5 65.5,97.5C 64.1667,97.5 62.8333,97.5 61.5,97.5C 61.5,93.8333 61.5,90.1667 61.5,86.5C 66.9586,86.8967 72.2919,86.3967 77.5,85C 79.3783,83.4571 80.8783,81.6238 82,79.5C 82.9094,73.5143 83.7427,67.5143 84.5,61.5C 87.5396,60.3197 90.2063,58.653 92.5,56.5C 89.3333,50.8333 86.1667,45.1667 83,39.5C 81.8731,21.6916 72.7064,10.8583 55.5,7C 22.3722,3.46171 6.87223,18.295 9,51.5C 12.7198,60.6078 16.7198,69.6078 21,78.5C 21.4995,84.8246 21.6662,91.1579 21.5,97.5C 20.1667,97.5 18.8333,97.5 17.5,97.5C 17.4056,90.4116 16.5723,83.4116 15,76.5C 10.2491,68.9981 6.58244,60.9981 4,52.5C -0.0548903,26.562 10.1118,9.562 34.5,1.5 Z M 52.5,24.5 C 60.4863,23.998 62.4863,27.1647 58.5,34C 50.424,34.8047 48.424,31.638 52.5,24.5 Z M 28.5,40.5 C 36.4863,39.998 38.4863,43.1647 34.5,50C 26.424,50.8047 24.424,47.638 28.5,40.5 Z"/></g>
<g><path style="opacity:0.972" fill="#ba83e8" d="M 43.5,37.5 C 46.7097,36.3047 47.3763,34.3047 45.5,31.5C 44.1667,31.5 42.8333,31.5 41.5,31.5C 41.5,30.1667 41.5,28.8333 41.5,27.5C 42.8333,27.5 44.1667,27.5 45.5,27.5C 45.33,26.1779 45.6634,25.0113 46.5,24C 45.5,23 44.5,22 43.5,21C 44.6667,19.8333 45.8333,18.6667 47,17.5C 48,18.5 49,19.5 50,20.5C 51.0113,19.6634 52.1779,19.33 53.5,19.5C 53.5,18.1667 53.5,16.8333 53.5,15.5C 54.8333,15.5 56.1667,15.5 57.5,15.5C 57.5,16.8333 57.5,18.1667 57.5,19.5C 58.8221,19.33 59.9887,19.6634 61,20.5C 62,19.5 63,18.5 64,17.5C 65.1667,18.6667 66.3333,19.8333 67.5,21C 66.5,22 65.5,23 64.5,24C 65.3366,25.0113 65.67,26.1779 65.5,27.5C 66.8333,27.5 68.1667,27.5 69.5,27.5C 69.5,28.8333 69.5,30.1667 69.5,31.5C 68.1667,31.5 66.8333,31.5 65.5,31.5C 65.67,32.8221 65.3366,33.9887 64.5,35C 65.5,36 66.5,37 67.5,38C 66.3333,39.1667 65.1667,40.3333 64,41.5C 63,40.5 62,39.5 61,38.5C 59.9887,39.3366 58.8221,39.67 57.5,39.5C 57.5,40.8333 57.5,42.1667 57.5,43.5C 56.1667,43.5 54.8333,43.5 53.5,43.5C 53.5,42.1667 53.5,40.8333 53.5,39.5C 52.1779,39.67 51.0113,39.3366 50,38.5C 47.4944,42.2508 45.3277,41.9174 43.5,37.5 Z M 52.5,24.5 C 48.424,31.638 50.424,34.8047 58.5,34C 62.4863,27.1647 60.4863,23.998 52.5,24.5 Z"/></g>
<g><path style="opacity:0.977" fill="#ba83e8" d="M 43.5,37.5 C 40.2903,38.6953 39.6237,40.6953 41.5,43.5C 42.8333,43.5 44.1667,43.5 45.5,43.5C 45.5,44.8333 45.5,46.1667 45.5,47.5C 44.1667,47.5 42.8333,47.5 41.5,47.5C 41.67,48.8221 41.3366,49.9887 40.5,51C 41.5,52 42.5,53 43.5,54C 42.3333,55.1667 41.1667,56.3333 40,57.5C 39,56.5 38,55.5 37,54.5C 35.9887,55.3366 34.8221,55.67 33.5,55.5C 33.5,56.8333 33.5,58.1667 33.5,59.5C 32.1667,59.5 30.8333,59.5 29.5,59.5C 29.5,58.1667 29.5,56.8333 29.5,55.5C 28.1779,55.67 27.0113,55.3366 26,54.5C 25,55.5 24,56.5 23,57.5C 21.8333,56.3333 20.6667,55.1667 19.5,54C 20.5,53 21.5,52 22.5,51C 21.6634,49.9887 21.33,48.8221 21.5,47.5C 20.1667,47.5 18.8333,47.5 17.5,47.5C 17.5,46.1667 17.5,44.8333 17.5,43.5C 18.8333,43.5 20.1667,43.5 21.5,43.5C 21.33,42.1779 21.6634,41.0113 22.5,40C 21.5,39 20.5,38 19.5,37C 20.6667,35.8333 21.8333,34.6667 23,33.5C 24,34.5 25,35.5 26,36.5C 27.0113,35.6634 28.1779,35.33 29.5,35.5C 29.5,34.1667 29.5,32.8333 29.5,31.5C 30.8333,31.5 32.1667,31.5 33.5,31.5C 33.5,32.8333 33.5,34.1667 33.5,35.5C 34.8221,35.33 35.9887,35.6634 37,36.5C 39.5056,32.7492 41.6723,33.0826 43.5,37.5 Z M 28.5,40.5 C 24.424,47.638 26.424,50.8047 34.5,50C 38.4863,43.1647 36.4863,39.998 28.5,40.5 Z"/></g>
</svg>
