<svg xmlns="http://www.w3.org/2000/svg" xmlns:xlink="http://www.w3.org/1999/xlink" width="500" zoomAndPan="magnify" viewBox="0 0 375 374.999991" height="500" preserveAspectRatio="xMidYMid meet" version="1.0"><defs><clipPath id="77e52a474f"><path d="M 152 49.105469 L 240 49.105469 L 240 101 L 152 101 Z M 152 49.105469 " clip-rule="nonzero"/></clipPath><clipPath id="368e659876"><path d="M 108.382812 151.675781 L 281.820312 151.675781 L 281.820312 250.855469 L 108.382812 250.855469 Z M 108.382812 151.675781 " clip-rule="nonzero"/></clipPath><clipPath id="4f34095b28"><path d="M 70.445312 243.136719 L 320.046875 243.136719 L 320.046875 250.855469 L 70.445312 250.855469 Z M 70.445312 243.136719 " clip-rule="nonzero"/></clipPath><clipPath id="ec6d49bc2d"><path d="M 129.386719 228.234375 L 261.496094 228.234375 L 261.496094 250.855469 L 129.386719 250.855469 Z M 129.386719 228.234375 " clip-rule="nonzero"/></clipPath><clipPath id="204d52017d"><path d="M 145 44 L 246 44 L 246 103.601562 L 145 103.601562 Z M 145 44 " clip-rule="nonzero"/></clipPath><clipPath id="7879f73aa9"><path d="M 230 96 L 244 96 L 244 103.601562 L 230 103.601562 Z M 230 96 " clip-rule="nonzero"/></clipPath><clipPath id="7e16c6b952"><path d="M 148 95 L 159 95 L 159 103.601562 L 148 103.601562 Z M 148 95 " clip-rule="nonzero"/></clipPath><clipPath id="c72b27ec03"><path d="M 144.085938 76 L 155 76 L 155 103 L 144.085938 103 Z M 144.085938 76 " clip-rule="nonzero"/></clipPath><clipPath id="4263f8ee96"><path d="M 177 42.101562 L 222 42.101562 L 222 60 L 177 60 Z M 177 42.101562 " clip-rule="nonzero"/></clipPath><clipPath id="7571842728"><path d="M 234 71 L 246.835938 71 L 246.835938 102 L 234 102 Z M 234 71 " clip-rule="nonzero"/></clipPath><clipPath id="cad2392df6"><path d="M 144.085938 72 L 156 72 L 156 77 L 144.085938 77 Z M 144.085938 72 " clip-rule="nonzero"/></clipPath><clipPath id="274c3c3816"><path d="M 170.023438 104 L 220.273438 104 L 220.273438 119.703125 L 170.023438 119.703125 Z M 170.023438 104 " clip-rule="nonzero"/></clipPath><clipPath id="221c368f8f"><path d="M 172 110 L 218 110 L 218 119.703125 L 172 119.703125 Z M 172 110 " clip-rule="nonzero"/></clipPath><clipPath id="67df5f9bd3"><path d="M 170.023438 103.203125 L 220.273438 103.203125 L 220.273438 119.703125 L 170.023438 119.703125 Z M 170.023438 103.203125 " clip-rule="nonzero"/></clipPath></defs><g clip-path="url(#77e52a474f)"><path fill="#ffffff" d="M 228.367188 100.835938 C 227.289062 100.835938 226.238281 100.390625 225.492188 99.601562 C 224.890625 98.96875 224.527344 98.242188 223.917969 97.035156 C 222.871094 94.949219 220.921875 91.070312 216.898438 85.972656 C 215.234375 83.863281 214.578125 83.152344 214.113281 82.699219 C 213.796875 82.394531 213.0625 81.703125 212.003906 80.886719 C 211.03125 81.945312 209.9375 82.855469 208.738281 83.601562 C 204.628906 86.167969 200.472656 86.066406 197.445312 85.992188 L 197.226562 85.988281 C 197.132812 85.984375 187.671875 85.769531 177.574219 86.46875 L 177.089844 86.5 C 173.820312 86.722656 170.441406 86.957031 167.902344 88.304688 C 165.488281 89.59375 164.066406 92.304688 163.15625 97.371094 C 162.886719 98.855469 161.84375 100.089844 160.429688 100.589844 C 158.699219 101.199219 156.851562 100.621094 155.71875 99.117188 C 153.773438 96.535156 153.394531 93.09375 153.121094 90.585938 L 153.109375 90.5 C 152.722656 86.957031 151.96875 78.359375 153.363281 75.03125 C 154.121094 73.230469 156.390625 68.542969 161.140625 63.957031 C 170.46875 54.941406 185.820312 51.398438 188.804688 50.777344 C 194.628906 49.570312 200.199219 49.136719 205.359375 49.5 C 208.992188 49.75 212.070312 50.203125 214.765625 50.886719 C 218.371094 51.800781 221.203125 53.578125 222.957031 56.023438 C 223.859375 57.285156 224.414062 58.582031 224.902344 59.722656 C 225.351562 60.777344 225.742188 61.683594 226.273438 62.25 C 227.011719 63.042969 228.019531 63.757812 229.082031 64.515625 C 230.265625 65.359375 231.605469 66.316406 232.816406 67.550781 C 235.769531 70.5625 239.105469 75.605469 239.621094 80.734375 C 240.105469 85.53125 238.023438 89.675781 236.160156 92.753906 C 235.945312 93.105469 234.917969 94.703125 233.894531 96.207031 C 231.816406 99.242188 230.8125 100.59375 228.78125 100.816406 C 228.644531 100.828125 228.503906 100.835938 228.367188 100.835938 Z M 211.15625 71.953125 C 212.902344 71.953125 214.347656 72.960938 215.265625 73.605469 L 215.351562 73.664062 C 217.414062 75.101562 218.878906 76.445312 219.570312 77.121094 C 220.320312 77.855469 221.195312 78.820312 223.023438 81.136719 C 225.6875 84.515625 227.542969 87.414062 228.855469 89.699219 C 229.132812 89.273438 229.359375 88.917969 229.488281 88.707031 C 231.320312 85.679688 232.050781 83.460938 231.859375 81.515625 C 231.605469 79.023438 229.707031 75.527344 227.242188 73.011719 C 226.515625 72.273438 225.566406 71.59375 224.554688 70.875 C 223.285156 69.96875 221.847656 68.945312 220.574219 67.585938 C 219.105469 66.015625 218.34375 64.226562 217.726562 62.792969 C 217.347656 61.902344 217.019531 61.136719 216.613281 60.566406 C 215.957031 59.652344 214.621094 58.902344 212.847656 58.453125 C 210.609375 57.886719 207.980469 57.503906 204.816406 57.285156 C 200.367188 56.972656 195.515625 57.355469 190.390625 58.417969 C 183.171875 59.917969 172.597656 63.734375 166.566406 69.570312 C 162.839844 73.167969 161.085938 76.824219 160.59375 77.980469 C 160.429688 78.597656 160.265625 80.78125 160.441406 84.375 C 161.476562 83.234375 162.726562 82.222656 164.234375 81.417969 C 168.242188 79.28125 172.664062 78.980469 176.5625 78.714844 L 177.035156 78.683594 C 187.507812 77.957031 197.011719 78.175781 197.410156 78.1875 L 197.632812 78.191406 C 200.234375 78.253906 202.480469 78.308594 204.605469 76.980469 C 205.710938 76.289062 206.660156 75.300781 207.429688 74.035156 C 208.046875 73.011719 209.03125 72.3125 210.203125 72.054688 C 210.53125 71.984375 210.847656 71.953125 211.15625 71.953125 Z M 214.128906 78.042969 C 214.125 78.050781 214.117188 78.0625 214.109375 78.070312 C 214.117188 78.0625 214.125 78.050781 214.128906 78.042969 Z M 214.128906 78.042969 " fill-opacity="1" fill-rule="evenodd"/></g><path fill="#ffffff" d="M 195.691406 154.191406 C 193.496094 154.191406 190.996094 153.980469 188.308594 153.386719 C 185.910156 152.855469 179.671875 151.085938 173.550781 146.074219 C 170.621094 143.671875 165.238281 138.371094 162.183594 129.867188 C 161.40625 127.707031 160.878906 125.398438 160.5625 123.71875 C 158.507812 122.742188 156.621094 121.320312 155.011719 119.519531 C 152.851562 117.105469 151.34375 114.183594 150.65625 111.066406 C 149.25 104.710938 151.402344 98.484375 156.5625 93.980469 C 158.183594 92.5625 160.648438 92.730469 162.066406 94.355469 C 163.484375 95.976562 163.316406 98.445312 161.691406 99.859375 C 157.867188 103.199219 157.722656 106.878906 158.277344 109.382812 C 159.078125 113.007812 161.898438 116.195312 165.136719 117.136719 C 166.621094 117.566406 167.707031 118.832031 167.914062 120.363281 C 168.15625 122.125 168.71875 124.980469 169.527344 127.226562 C 172.039062 134.214844 176.636719 138.511719 178.496094 140.035156 C 183.3125 143.980469 188.140625 145.355469 189.988281 145.765625 C 195.253906 146.925781 199.59375 146.160156 201.210938 145.777344 C 205.632812 144.734375 208.628906 142.675781 209.90625 141.796875 C 210.828125 141.164062 213.238281 139.375 215.699219 136.460938 C 219.253906 132.253906 221.882812 126.507812 223.300781 119.855469 C 223.636719 118.289062 224.890625 117.085938 226.46875 116.816406 C 228.992188 116.394531 232.203125 112.035156 232.5625 107.042969 C 232.8125 103.605469 231.660156 101.449219 229.132812 100.636719 C 227.082031 99.976562 225.949219 97.777344 226.613281 95.726562 C 227.273438 93.675781 229.46875 92.546875 231.523438 93.207031 C 234.738281 94.238281 237.238281 96.300781 238.757812 99.167969 C 240.023438 101.558594 240.574219 104.476562 240.347656 107.605469 C 239.882812 114.023438 236.136719 121.183594 230.414062 123.714844 C 228.625 130.757812 225.6875 136.734375 221.660156 141.5 C 218.699219 145 215.796875 147.21875 214.328125 148.226562 C 212.828125 149.257812 208.851562 151.996094 203.007812 153.375 C 201.433594 153.746094 198.878906 154.191406 195.691406 154.191406 " fill-opacity="1" fill-rule="evenodd"/><path fill="#ffffff" d="M 175.164062 166.746094 C 174.582031 166.746094 173.992188 166.617188 173.433594 166.339844 C 171.507812 165.378906 170.71875 163.039062 171.675781 161.109375 C 172.6875 159.0625 174.40625 154.964844 174.527344 150.46875 C 174.570312 148.746094 174.34375 147.949219 173.96875 146.628906 C 173.863281 146.253906 173.746094 145.832031 173.625 145.363281 C 173.089844 143.277344 174.347656 141.152344 176.4375 140.617188 C 178.523438 140.082031 180.648438 141.339844 181.183594 143.425781 C 181.277344 143.796875 181.378906 144.136719 181.476562 144.496094 C 181.933594 146.101562 182.402344 147.761719 182.328125 150.675781 C 182.171875 156.664062 179.964844 161.957031 178.664062 164.578125 C 177.984375 165.953125 176.601562 166.746094 175.164062 166.746094 " fill-opacity="1" fill-rule="evenodd"/><path fill="#ffffff" d="M 215.390625 167.964844 C 214.023438 167.964844 212.699219 167.242188 211.980469 165.96875 C 210.011719 162.449219 207.628906 156.941406 207.460938 150.675781 C 207.386719 147.757812 207.855469 146.101562 208.308594 144.5 C 208.347656 144.347656 208.390625 144.199219 208.4375 144.042969 C 209.015625 141.96875 211.164062 140.75 213.238281 141.328125 C 215.316406 141.902344 216.53125 144.054688 215.957031 146.132812 C 215.910156 146.300781 215.863281 146.464844 215.816406 146.621094 C 215.445312 147.945312 215.21875 148.742188 215.261719 150.46875 C 215.386719 155.144531 217.246094 159.402344 218.789062 162.152344 C 219.84375 164.03125 219.171875 166.410156 217.292969 167.460938 C 216.6875 167.800781 216.035156 167.964844 215.390625 167.964844 " fill-opacity="1" fill-rule="evenodd"/><g clip-path="url(#368e659876)"><path fill="#ffffff" d="M 277.832031 251.054688 L 112.804688 251.054688 C 110.652344 251.054688 108.90625 249.316406 108.902344 247.167969 C 108.863281 235.40625 109.414062 206.007812 115.28125 187.089844 C 116.847656 182.035156 118.75 177.910156 121.269531 174.105469 C 123.375 170.917969 129.453125 162.894531 140.332031 157.367188 C 150.285156 152.308594 159.808594 151.550781 166.042969 151.808594 C 166.980469 151.847656 167.871094 152.222656 168.554688 152.863281 L 185.816406 169.070312 C 187.390625 170.546875 187.464844 173.015625 185.992188 174.585938 C 184.519531 176.15625 182.050781 176.234375 180.476562 174.757812 L 164.296875 159.570312 C 159.027344 159.519531 151.59375 160.398438 143.871094 164.324219 C 134.652344 169.011719 129.546875 175.734375 127.777344 178.410156 C 125.652344 181.625 124.09375 185.015625 122.734375 189.402344 C 117.6875 205.671875 116.832031 231.375 116.71875 243.25 L 273.917969 243.25 C 273.804688 231.375 272.949219 205.667969 267.898438 189.402344 C 266.542969 185.015625 264.984375 181.625 262.859375 178.410156 C 261.089844 175.734375 255.984375 169.011719 246.765625 164.324219 C 239.015625 160.382812 231.558594 159.519531 226.28125 159.570312 L 209.171875 174.828125 C 207.5625 176.261719 205.101562 176.121094 203.664062 174.511719 C 202.226562 172.902344 202.371094 170.4375 203.976562 169.003906 L 222.15625 152.792969 C 222.832031 152.191406 223.691406 151.84375 224.59375 151.804688 C 230.828125 151.550781 240.351562 152.308594 250.304688 157.367188 C 261.183594 162.894531 267.257812 170.917969 269.367188 174.105469 C 271.886719 177.910156 273.789062 182.035156 275.355469 187.089844 C 281.222656 206.007812 281.773438 235.40625 281.734375 247.167969 C 281.726562 249.316406 279.984375 251.054688 277.832031 251.054688 " fill-opacity="1" fill-rule="evenodd"/></g><g clip-path="url(#4f34095b28)"><path fill="#ffffff" d="M 316.289062 251.058594 L 74.347656 251.058594 C 72.191406 251.058594 70.445312 249.3125 70.445312 247.15625 C 70.445312 245 72.191406 243.253906 74.347656 243.253906 L 316.289062 243.253906 C 318.445312 243.253906 320.191406 245 320.191406 247.15625 C 320.191406 249.3125 318.445312 251.058594 316.289062 251.058594 " fill-opacity="1" fill-rule="evenodd"/></g><g clip-path="url(#ec6d49bc2d)"><path fill="#ffffff" d="M 244.804688 251.058594 L 145.832031 251.058594 C 136.765625 251.058594 129.386719 243.679688 129.386719 234.609375 L 129.386719 232.773438 C 129.386719 230.621094 131.132812 228.875 133.289062 228.875 L 257.347656 228.875 C 259.503906 228.875 261.25 230.621094 261.25 232.773438 L 261.25 234.609375 C 261.25 243.679688 253.875 251.058594 244.804688 251.058594 Z M 137.4375 236.675781 C 138.367188 240.449219 141.777344 243.253906 145.832031 243.253906 L 244.804688 243.253906 C 248.859375 243.253906 252.269531 240.445312 253.195312 236.675781 L 137.4375 236.675781 " fill-opacity="1" fill-rule="evenodd"/></g><path fill="#ffffff" d="M 248.832031 236.675781 L 141.804688 236.675781 C 139.652344 236.675781 137.90625 234.929688 137.90625 232.773438 L 137.90625 178.417969 C 137.90625 172.679688 142.574219 168.011719 148.308594 168.011719 L 242.328125 168.011719 C 248.066406 168.011719 252.734375 172.679688 252.734375 178.417969 L 252.734375 232.773438 C 252.734375 234.929688 250.984375 236.675781 248.832031 236.675781 Z M 145.707031 228.875 L 244.929688 228.875 L 244.929688 178.417969 C 244.929688 176.984375 243.761719 175.816406 242.328125 175.816406 L 148.308594 175.816406 C 146.875 175.816406 145.707031 176.984375 145.707031 178.417969 L 145.707031 228.875 " fill-opacity="1" fill-rule="evenodd"/><path fill="#ffffff" d="M 179.910156 217.238281 C 179.085938 217.238281 178.253906 216.976562 177.546875 216.4375 L 163.152344 205.445312 C 162.1875 204.707031 161.617188 203.558594 161.617188 202.34375 C 161.617188 201.128906 162.1875 199.980469 163.152344 199.242188 L 177.546875 188.25 C 179.261719 186.941406 181.707031 187.269531 183.015625 188.984375 C 184.324219 190.695312 183.996094 193.144531 182.28125 194.453125 L 171.949219 202.34375 L 182.285156 210.238281 C 183.996094 211.542969 184.324219 213.992188 183.015625 215.707031 C 182.246094 216.710938 181.085938 217.238281 179.910156 217.238281 " fill-opacity="1" fill-rule="evenodd"/><path fill="#ffffff" d="M 210.722656 217.238281 C 209.546875 217.238281 208.390625 216.710938 207.617188 215.703125 C 206.3125 213.992188 206.640625 211.542969 208.351562 210.238281 L 218.683594 202.34375 L 208.351562 194.453125 C 206.640625 193.144531 206.3125 190.695312 207.617188 188.984375 C 208.929688 187.269531 211.378906 186.941406 213.089844 188.25 L 227.484375 199.242188 C 228.449219 199.980469 229.015625 201.128906 229.015625 202.34375 C 229.015625 203.558594 228.449219 204.707031 227.484375 205.445312 L 213.089844 216.4375 C 212.382812 216.976562 211.550781 217.238281 210.722656 217.238281 " fill-opacity="1" fill-rule="evenodd"/><path fill="#ffffff" d="M 190.617188 223.078125 C 190.269531 223.078125 189.917969 223.03125 189.566406 222.933594 C 187.492188 222.351562 186.277344 220.199219 186.855469 218.125 L 196.261719 184.464844 C 196.84375 182.390625 198.996094 181.175781 201.070312 181.757812 C 203.148438 182.339844 204.359375 184.488281 203.777344 186.566406 L 194.375 220.226562 C 193.890625 221.949219 192.324219 223.078125 190.617188 223.078125 " fill-opacity="1" fill-rule="evenodd"/><g clip-path="url(#204d52017d)"><path fill="#000000" d="M 204.457031 44.035156 C 203.894531 44.035156 203.285156 44.066406 202.539062 44.144531 C 201.871094 44.222656 201.261719 44.332031 200.714844 44.488281 C 199.46875 44.84375 198.285156 45.46875 197.179688 46.339844 C 196.945312 46.199219 196.679688 46.089844 196.433594 45.964844 C 196.167969 45.84375 195.871094 45.75 195.511719 45.671875 C 194.75 45.5 193.953125 45.421875 193.191406 45.359375 L 193.066406 45.34375 C 192.644531 45.3125 192.242188 45.28125 191.804688 45.265625 C 191.554688 45.25 191.304688 45.234375 191.058594 45.234375 C 190.980469 45.234375 190.902344 45.234375 190.808594 45.234375 C 190.199219 45.234375 189.546875 45.28125 188.765625 45.375 C 187.378906 45.53125 186.023438 46.074219 185.136719 46.449219 C 184.0625 46.917969 183.003906 47.601562 181.988281 48.507812 C 181.085938 49.300781 180.277344 50.28125 179.542969 51.402344 C 179.152344 51.996094 178.84375 52.648438 178.59375 53.210938 C 178.359375 53.695312 178.171875 54.144531 177.984375 54.597656 C 177.9375 54.566406 177.890625 54.550781 177.828125 54.535156 L 177.703125 54.488281 C 177.269531 54.300781 176.832031 54.113281 176.378906 53.957031 C 175.757812 53.757812 175.085938 53.664062 174.464844 53.585938 C 173.964844 53.523438 173.453125 53.492188 172.953125 53.445312 L 172.609375 53.414062 C 172.128906 53.382812 171.675781 53.367188 171.238281 53.367188 C 170.664062 53.367188 170.117188 53.398438 169.589844 53.460938 C 169.105469 53.523438 168.558594 53.632812 167.96875 53.835938 C 167.4375 54.003906 166.894531 54.207031 166.363281 54.472656 C 166.160156 54.394531 165.957031 54.363281 165.738281 54.363281 C 165.304688 54.363281 164.882812 54.519531 164.585938 54.816406 C 164.445312 54.957031 164.304688 55.082031 164.167969 55.222656 C 164.121094 55.238281 164.058594 55.269531 164.011719 55.28125 C 163.824219 55.375 163.652344 55.484375 163.433594 55.640625 C 163.183594 55.828125 163.011719 56.03125 162.859375 56.21875 C 162.59375 56.546875 162.421875 56.902344 162.234375 57.308594 C 162.1875 57.402344 162.140625 57.511719 162.109375 57.621094 C 161.875 57.964844 161.65625 58.304688 161.488281 58.664062 C 160.878906 59.863281 160.472656 61.140625 160.285156 62.480469 C 160.023438 62.667969 159.757812 62.871094 159.492188 63.089844 C 158.667969 63.757812 157.871094 64.585938 157.140625 65.550781 C 156.453125 66.4375 155.910156 67.480469 155.550781 68.574219 C 155.347656 69.179688 155.238281 69.835938 155.144531 70.394531 C 155.050781 70.972656 154.988281 71.546875 154.957031 72.171875 C 154.910156 73.261719 155.050781 74.335938 155.363281 75.398438 C 154.863281 75.566406 154.351562 75.785156 153.695312 76.082031 C 152.511719 76.628906 151.4375 77.328125 150.488281 78.136719 C 149.988281 78.558594 149.566406 79.058594 149.148438 79.554688 C 148.789062 79.992188 148.460938 80.476562 148.164062 81.066406 C 148.058594 81.269531 147.964844 81.457031 147.886719 81.628906 C 147.449219 81.753906 147.027344 82.003906 146.703125 82.3125 C 146.359375 82.640625 146.1875 83.015625 145.984375 83.484375 C 145.875 83.730469 145.796875 84.011719 145.71875 84.402344 C 145.65625 84.761719 145.59375 85.148438 145.578125 85.570312 C 145.5625 85.976562 145.609375 86.378906 145.65625 86.738281 C 145.703125 87.082031 145.828125 87.425781 145.96875 87.734375 L 145.984375 87.796875 C 146.09375 88.0625 146.21875 88.328125 146.390625 88.609375 C 146.703125 89.105469 147.089844 89.605469 147.574219 90.089844 L 147.574219 90.121094 C 147.464844 90.804688 147.433594 91.507812 147.386719 92.191406 L 147.371094 92.332031 C 147.292969 93.75 147.246094 95.261719 147.761719 96.648438 C 147.777344 96.710938 147.808594 96.773438 147.824219 96.835938 C 147.808594 96.882812 147.792969 96.929688 147.777344 96.972656 C 147.636719 97.425781 147.683594 97.957031 147.902344 98.300781 C 148.367188 99.046875 148.835938 99.761719 149.414062 100.402344 C 149.675781 100.683594 149.957031 100.933594 150.207031 101.132812 L 150.269531 101.179688 C 150.519531 101.398438 150.785156 101.617188 151.0625 101.804688 C 151.515625 102.117188 151.984375 102.410156 152.464844 102.691406 C 152.527344 102.738281 152.605469 102.769531 152.667969 102.816406 C 153.136719 103.097656 153.601562 103.394531 154.148438 103.394531 C 154.273438 103.394531 154.398438 103.378906 154.523438 103.347656 C 155.175781 103.175781 155.707031 102.769531 155.957031 102.273438 L 155.957031 102.257812 C 156.203125 102.039062 156.375 101.773438 156.484375 101.460938 C 156.59375 101.101562 156.59375 100.714844 156.453125 100.355469 C 156.828125 100.324219 157.28125 100.277344 157.730469 100.167969 C 158.136719 100.074219 158.527344 99.902344 158.960938 99.714844 C 159.726562 99.390625 160.394531 98.921875 161.019531 98.453125 C 161.503906 98.097656 161.96875 97.660156 162.40625 97.144531 C 162.65625 96.851562 162.917969 96.523438 163.152344 96.164062 C 163.386719 95.804688 163.574219 95.402344 163.746094 95.042969 C 163.933594 94.621094 164.089844 94.15625 164.214844 93.65625 C 164.460938 93.703125 164.742188 93.765625 165.023438 93.765625 C 165.460938 93.765625 165.832031 93.6875 166.332031 93.46875 C 166.878906 93.234375 167.375 92.878906 167.84375 92.535156 L 167.921875 92.472656 C 168.996094 91.691406 169.867188 90.664062 170.507812 89.871094 C 171.113281 89.089844 171.675781 88.21875 172.269531 87.097656 C 172.625 86.425781 172.9375 85.742188 173.21875 85.070312 L 173.234375 85.054688 C 174.183594 84.199219 174.949219 83.15625 175.507812 81.957031 C 175.664062 81.613281 175.820312 81.253906 175.992188 80.847656 C 176.394531 80.847656 176.785156 80.832031 177.160156 80.820312 C 177.660156 81.285156 178.046875 81.644531 178.4375 81.972656 C 179.339844 82.75 180.167969 83.375 180.960938 83.886719 C 181.769531 84.417969 182.691406 84.882812 183.890625 85.367188 C 186.007812 86.222656 188.253906 86.457031 190.777344 86.660156 C 190.824219 86.660156 190.855469 86.660156 190.902344 86.660156 C 191.773438 86.660156 192.519531 85.898438 192.566406 85.007812 L 192.566406 84.992188 C 192.816406 84.855469 193.082031 84.699219 193.410156 84.480469 C 193.753906 84.261719 194.03125 84.042969 194.296875 83.839844 C 194.53125 84.230469 194.796875 84.589844 195.09375 84.945312 C 195.511719 85.445312 196.027344 85.867188 196.511719 86.238281 C 197.117188 86.707031 197.820312 87.035156 198.363281 87.253906 C 199.003906 87.519531 199.6875 87.640625 200.296875 87.734375 C 200.53125 87.765625 200.761719 87.796875 200.996094 87.796875 C 201.449219 87.796875 201.898438 87.734375 202.351562 87.59375 C 202.695312 87.488281 203.039062 87.347656 203.394531 87.175781 C 203.738281 87.003906 204.050781 86.785156 204.316406 86.582031 C 204.582031 86.394531 204.828125 86.164062 205.09375 85.882812 C 205.390625 86.207031 205.71875 86.472656 206.074219 86.769531 C 206.542969 87.160156 207.074219 87.425781 207.710938 87.734375 C 208.863281 88.28125 210.109375 88.484375 211.1875 88.609375 C 211.417969 88.640625 211.667969 88.65625 211.917969 88.65625 C 212.945312 88.65625 214.003906 88.40625 214.972656 87.921875 C 215.191406 87.8125 215.421875 87.671875 215.671875 87.503906 C 215.78125 87.96875 215.921875 88.453125 216.15625 89.027344 C 216.390625 89.605469 216.6875 90.136719 217.105469 90.710938 C 217.261719 90.929688 217.433594 91.132812 217.621094 91.320312 C 217.824219 91.539062 218.070312 91.738281 218.304688 91.925781 L 218.445312 92.050781 C 218.929688 92.457031 219.503906 92.738281 220.097656 93 C 220.582031 93.21875 221.109375 93.390625 221.796875 93.546875 C 222.589844 93.71875 223.246094 93.828125 223.851562 93.875 C 224.007812 93.890625 224.179688 93.890625 224.335938 93.890625 C 224.878906 93.890625 225.441406 93.828125 225.910156 93.765625 C 226.082031 93.75 226.25 93.71875 226.421875 93.671875 C 226.40625 93.90625 226.390625 94.140625 226.390625 94.355469 C 226.375 94.871094 226.40625 95.402344 226.484375 95.992188 C 226.5625 96.507812 226.703125 97.035156 226.953125 97.628906 C 227.171875 98.160156 227.480469 98.609375 227.792969 99.03125 C 228.058594 99.40625 228.355469 99.730469 228.667969 99.996094 C 229.117188 100.386719 229.492188 100.636719 229.898438 100.855469 C 230.410156 101.117188 230.941406 101.320312 231.515625 101.476562 C 231.953125 101.601562 232.40625 101.679688 232.839844 101.742188 C 232.902344 101.851562 232.980469 101.960938 233.074219 102.070312 C 233.324219 102.347656 233.777344 102.613281 234.195312 102.613281 C 234.226562 102.613281 234.242188 102.613281 234.257812 102.613281 C 235.304688 102.535156 236.503906 102.441406 237.640625 102.132812 C 238.746094 101.820312 239.789062 101.382812 240.710938 100.839844 C 241.222656 100.527344 241.722656 100.167969 242.191406 99.761719 C 242.65625 99.34375 243.0625 98.84375 243.359375 98.4375 C 243.699219 97.972656 243.949219 97.457031 244.199219 96.882812 C 244.386719 96.476562 244.527344 96.007812 244.652344 95.386719 C 244.902344 94.171875 244.960938 92.96875 244.871094 91.816406 C 244.808594 91.117188 244.714844 90.539062 244.574219 90.011719 C 245.101562 89.714844 245.445312 89.167969 245.460938 88.578125 L 245.460938 88.5 C 245.507812 87.050781 245.554688 85.570312 245.429688 84.105469 L 245.398438 83.699219 C 245.367188 83.265625 245.335938 82.828125 245.273438 82.375 C 245.226562 81.941406 245.148438 81.363281 245.007812 80.789062 C 244.960938 80.585938 244.902344 80.382812 244.855469 80.179688 C 244.824219 80.054688 244.777344 79.914062 244.746094 79.789062 C 244.542969 78.996094 244.339844 78.136719 244.105469 77.1875 C 243.917969 76.425781 243.21875 75.863281 242.421875 75.863281 C 242.390625 75.863281 242.359375 75.863281 242.3125 75.863281 C 242.113281 75.519531 241.878906 75.148438 241.566406 74.726562 C 240.910156 73.839844 240.101562 73.136719 239.464844 72.625 C 239.074219 72.296875 238.699219 72.03125 238.339844 71.796875 C 238.03125 71.59375 237.6875 71.421875 237.359375 71.253906 L 237.171875 71.160156 L 236.984375 71.082031 L 236.90625 71.050781 L 236.90625 70.878906 C 236.90625 70.722656 236.890625 70.550781 236.890625 70.394531 C 236.875 69.898438 236.816406 69.382812 236.753906 68.789062 C 236.675781 68.214844 236.519531 67.589844 236.285156 66.9375 C 236.035156 66.25 235.753906 65.660156 235.429688 65.113281 C 235.070312 64.523438 234.664062 63.960938 234.226562 63.460938 C 233.761719 62.949219 233.214844 62.496094 232.796875 62.183594 C 232.296875 61.8125 231.71875 61.484375 230.957031 61.171875 C 230.222656 60.875 229.398438 60.734375 228.417969 60.734375 C 227.933594 60.734375 227.421875 60.765625 226.765625 60.84375 C 226.34375 60.890625 225.910156 60.984375 225.472656 61.109375 C 225.535156 60.378906 225.519531 59.644531 225.488281 59.085938 C 225.425781 57.855469 225.285156 56.886719 225.050781 56.046875 C 224.769531 55.082031 224.273438 54.160156 223.585938 53.320312 C 222.980469 52.574219 222.183594 51.980469 221.421875 51.433594 C 221.171875 51.261719 220.859375 51.171875 220.550781 51.171875 C 219.957031 51.171875 219.367188 51.480469 219.054688 51.964844 C 219.023438 52.011719 219.007812 52.058594 218.976562 52.089844 C 218.757812 52.042969 218.523438 52.011719 218.304688 51.980469 L 218.226562 51.964844 C 218.070312 51.949219 217.886719 51.933594 217.667969 51.933594 C 217.542969 51.933594 217.417969 51.933594 217.292969 51.933594 L 217.246094 51.933594 C 216.625 51.949219 215.9375 52.027344 215.207031 52.167969 C 214.800781 52.246094 214.378906 52.371094 213.914062 52.558594 C 213.835938 51.980469 213.710938 51.449219 213.554688 50.96875 C 213.117188 49.628906 212.449219 48.398438 211.574219 47.320312 C 211.140625 46.792969 210.625 46.339844 210.1875 45.980469 C 209.738281 45.609375 209.238281 45.28125 208.707031 45 C 208.070312 44.65625 207.476562 44.425781 206.871094 44.285156 C 206.230469 44.128906 205.546875 44.050781 204.671875 44.035156 C 204.59375 44.035156 204.535156 44.035156 204.457031 44.035156 Z M 152.183594 96.445312 C 152.214844 96.429688 152.246094 96.414062 152.277344 96.414062 C 152.246094 96.429688 152.214844 96.429688 152.183594 96.445312 Z M 152.183594 96.445312 " fill-opacity="1" fill-rule="nonzero"/></g><path fill="#000000" d="M 242.175781 96.398438 C 242.035156 96.429688 241.910156 96.523438 241.847656 96.632812 C 241.769531 96.742188 241.722656 96.929688 241.769531 97.050781 C 241.832031 97.222656 241.894531 97.394531 241.925781 97.582031 C 241.925781 97.628906 241.925781 97.660156 241.925781 97.707031 C 241.894531 97.847656 241.832031 97.972656 241.785156 98.097656 C 241.691406 98.269531 241.597656 98.421875 241.472656 98.5625 C 241.097656 98.984375 240.664062 99.34375 240.210938 99.683594 C 239.386719 100.261719 238.511719 100.761719 237.578125 101.132812 C 237.34375 101.226562 237.109375 101.289062 236.859375 101.351562 C 236.582031 101.414062 236.300781 101.460938 236.019531 101.492188 C 235.320312 101.554688 234.617188 101.523438 233.917969 101.414062 C 233.589844 101.351562 233.261719 101.257812 232.949219 101.117188 C 232.75 101.023438 232.5625 100.902344 232.390625 100.777344 C 232.265625 100.667969 232.15625 100.558594 232.0625 100.433594 C 232 100.339844 231.953125 100.246094 231.90625 100.136719 C 231.859375 99.996094 231.8125 99.855469 231.78125 99.730469 C 231.703125 99.453125 231.425781 99.25 231.128906 99.328125 C 230.847656 99.390625 230.644531 99.699219 230.722656 99.980469 C 230.816406 100.308594 230.910156 100.636719 231.082031 100.917969 C 231.253906 101.210938 231.5 101.460938 231.765625 101.679688 C 232.328125 102.117188 232.996094 102.363281 233.683594 102.472656 C 234.382812 102.597656 235.085938 102.644531 235.785156 102.597656 C 236.128906 102.582031 236.488281 102.535156 236.832031 102.472656 C 237.1875 102.410156 237.546875 102.304688 237.890625 102.179688 C 238.542969 101.929688 239.167969 101.632812 239.757812 101.273438 C 240.367188 100.917969 240.972656 100.496094 241.519531 100.042969 C 241.769531 99.839844 242.003906 99.609375 242.222656 99.375 C 242.34375 99.234375 242.453125 99.09375 242.546875 98.953125 C 242.671875 98.78125 242.75 98.609375 242.828125 98.421875 C 242.890625 98.285156 242.9375 98.128906 242.984375 97.988281 C 243.03125 97.800781 243.03125 97.597656 243.015625 97.410156 C 242.984375 97.207031 242.921875 97.003906 242.859375 96.804688 C 242.84375 96.757812 242.828125 96.710938 242.8125 96.664062 C 242.765625 96.585938 242.703125 96.507812 242.625 96.460938 C 242.53125 96.398438 242.4375 96.382812 242.328125 96.382812 C 242.25 96.382812 242.222656 96.398438 242.175781 96.398438 Z M 242.175781 96.398438 " fill-opacity="1" fill-rule="nonzero"/><g clip-path="url(#7879f73aa9)"><path fill="#000000" d="M 242.59375 97.113281 C 242.5 97.207031 242.40625 97.363281 242.421875 97.488281 C 242.421875 97.535156 242.421875 97.582031 242.421875 97.628906 C 242.375 97.785156 242.328125 97.925781 242.265625 98.066406 C 242.160156 98.269531 242.050781 98.453125 241.910156 98.625 C 241.597656 98.96875 241.269531 99.28125 240.910156 99.59375 C 240.523438 99.933594 240.117188 100.246094 239.695312 100.558594 C 238.949219 101.085938 238.140625 101.554688 237.28125 101.898438 C 236.753906 102.085938 236.222656 102.242188 235.660156 102.304688 C 234.992188 102.347656 234.320312 102.304688 233.667969 102.195312 C 233.261719 102.117188 232.871094 102.039062 232.5 101.882812 C 232.359375 101.820312 232.234375 101.742188 232.125 101.648438 C 232.078125 101.601562 232.03125 101.554688 232 101.507812 C 231.9375 101.414062 231.875 101.304688 231.8125 101.195312 C 231.671875 100.933594 231.332031 100.839844 231.082031 100.980469 C 230.816406 101.117188 230.722656 101.445312 230.863281 101.710938 C 230.988281 101.945312 231.128906 102.179688 231.316406 102.378906 C 231.546875 102.613281 231.84375 102.769531 232.140625 102.910156 C 232.4375 103.035156 232.75 103.113281 233.058594 103.191406 C 233.417969 103.269531 233.761719 103.332031 234.121094 103.363281 C 234.789062 103.441406 235.476562 103.441406 236.160156 103.347656 C 236.847656 103.253906 237.515625 103.019531 238.15625 102.738281 C 238.746094 102.472656 239.308594 102.148438 239.851562 101.804688 C 240.429688 101.414062 240.988281 100.996094 241.519531 100.542969 C 241.738281 100.355469 241.957031 100.152344 242.175781 99.949219 C 242.40625 99.714844 242.625 99.484375 242.84375 99.234375 C 243.0625 98.984375 243.203125 98.6875 243.34375 98.390625 C 243.453125 98.128906 243.5625 97.832031 243.546875 97.535156 C 243.53125 97.378906 243.5 97.253906 243.40625 97.144531 C 243.3125 97.035156 243.171875 96.972656 243.03125 96.972656 C 243.03125 96.972656 243.015625 96.972656 243.015625 96.972656 C 242.828125 96.960938 242.6875 97.019531 242.59375 97.113281 Z M 242.59375 97.113281 " fill-opacity="1" fill-rule="nonzero"/><path fill="#000000" d="M 242.144531 96.742188 C 241.941406 96.929688 241.894531 97.300781 242.113281 97.503906 C 242.160156 97.550781 242.207031 97.597656 242.25 97.644531 C 242.25 97.660156 242.25 97.691406 242.25 97.707031 C 242.222656 97.847656 242.175781 97.988281 242.113281 98.128906 C 241.988281 98.375 241.816406 98.59375 241.644531 98.8125 C 240.867188 99.714844 239.976562 100.527344 239.011719 101.226562 C 238.277344 101.742188 237.515625 102.195312 236.691406 102.519531 C 236.253906 102.675781 235.816406 102.769531 235.367188 102.832031 C 234.882812 102.863281 234.398438 102.847656 233.933594 102.769531 C 233.574219 102.707031 233.230469 102.597656 232.902344 102.457031 C 232.65625 102.335938 232.4375 102.195312 232.21875 102.039062 C 232.03125 101.882812 231.84375 101.710938 231.671875 101.539062 C 231.5625 101.429688 231.441406 101.367188 231.300781 101.367188 C 231.160156 101.367188 231.019531 101.414062 230.910156 101.507812 C 230.707031 101.695312 230.660156 102.070312 230.878906 102.273438 C 231.113281 102.488281 231.347656 102.707031 231.59375 102.910156 C 231.84375 103.113281 232.109375 103.269531 232.40625 103.410156 C 232.71875 103.566406 233.042969 103.675781 233.386719 103.75 C 233.761719 103.84375 234.152344 103.890625 234.523438 103.921875 C 234.882812 103.953125 235.226562 103.921875 235.582031 103.890625 C 235.925781 103.859375 236.253906 103.796875 236.582031 103.703125 C 236.921875 103.613281 237.25 103.472656 237.578125 103.332031 C 237.921875 103.175781 238.246094 103.003906 238.574219 102.816406 C 239.183594 102.472656 239.757812 102.054688 240.304688 101.632812 C 240.851562 101.195312 241.378906 100.714844 241.863281 100.214844 C 242.34375 99.714844 242.84375 99.1875 243.140625 98.546875 C 243.265625 98.269531 243.34375 97.988281 243.375 97.691406 C 243.375 97.613281 243.375 97.535156 243.359375 97.472656 C 243.359375 97.441406 243.359375 97.425781 243.34375 97.394531 C 243.3125 97.316406 243.28125 97.253906 243.265625 97.175781 C 243.171875 97.019531 243.0625 96.898438 242.9375 96.773438 C 242.828125 96.664062 242.703125 96.601562 242.5625 96.601562 C 242.5625 96.601562 242.546875 96.601562 242.546875 96.601562 C 242.375 96.601562 242.234375 96.648438 242.144531 96.742188 Z M 242.234375 97.566406 C 242.25 97.582031 242.25 97.613281 242.265625 97.628906 C 242.25 97.613281 242.234375 97.582031 242.234375 97.566406 Z M 242.265625 97.675781 C 242.265625 97.691406 242.265625 97.707031 242.265625 97.722656 C 242.265625 97.707031 242.265625 97.691406 242.265625 97.675781 Z M 241.613281 98.859375 C 241.597656 98.875 241.597656 98.875 241.582031 98.890625 C 241.597656 98.890625 241.613281 98.875 241.613281 98.859375 Z M 235.460938 102.832031 C 235.445312 102.832031 235.429688 102.832031 235.414062 102.832031 C 235.429688 102.847656 235.445312 102.832031 235.460938 102.832031 Z M 235.460938 102.832031 " fill-opacity="1" fill-rule="nonzero"/></g><g clip-path="url(#7e16c6b952)"><path fill="#000000" d="M 156.609375 95.757812 C 156.484375 95.820312 156.390625 95.945312 156.34375 96.070312 C 156.296875 96.195312 156.3125 96.367188 156.390625 96.492188 C 156.546875 96.726562 156.65625 96.972656 156.765625 97.222656 C 156.828125 97.394531 156.859375 97.566406 156.890625 97.738281 C 156.921875 98.207031 156.890625 98.671875 156.84375 99.140625 C 156.796875 99.609375 156.734375 100.074219 156.65625 100.542969 C 156.609375 100.824219 156.53125 101.085938 156.453125 101.351562 C 156.390625 101.585938 156.3125 101.804688 156.21875 102.023438 C 156.160156 102.132812 156.097656 102.242188 156.019531 102.347656 C 155.941406 102.441406 155.847656 102.519531 155.753906 102.597656 C 155.691406 102.628906 155.628906 102.675781 155.566406 102.707031 C 155.503906 102.722656 155.457031 102.738281 155.394531 102.738281 C 155.253906 102.738281 155.113281 102.738281 154.972656 102.722656 C 154.648438 102.644531 154.335938 102.519531 154.023438 102.378906 C 153.402344 102.085938 152.824219 101.710938 152.277344 101.273438 C 152.0625 101.085938 151.84375 100.871094 151.640625 100.652344 C 151.40625 100.402344 151.203125 100.121094 151.015625 99.855469 C 150.800781 99.546875 150.597656 99.234375 150.441406 98.890625 C 150.253906 98.515625 150.097656 98.128906 149.941406 97.738281 C 149.894531 97.613281 149.753906 97.519531 149.628906 97.472656 C 149.488281 97.425781 149.335938 97.441406 149.210938 97.519531 C 149.085938 97.582031 148.992188 97.707031 148.945312 97.832031 C 148.898438 97.988281 148.929688 98.113281 148.992188 98.253906 C 149.132812 98.609375 149.289062 98.96875 149.457031 99.3125 C 149.628906 99.667969 149.832031 99.996094 150.066406 100.324219 C 150.300781 100.667969 150.550781 100.996094 150.8125 101.304688 C 151.078125 101.617188 151.375 101.882812 151.6875 102.148438 C 152.292969 102.644531 152.964844 103.050781 153.679688 103.378906 C 154.023438 103.535156 154.382812 103.6875 154.757812 103.765625 C 155.128906 103.84375 155.566406 103.859375 155.941406 103.734375 C 156.34375 103.597656 156.65625 103.316406 156.921875 103.003906 C 157.15625 102.707031 157.3125 102.378906 157.421875 102.023438 C 157.667969 101.273438 157.792969 100.480469 157.902344 99.699219 C 157.949219 99.296875 157.980469 98.890625 158.011719 98.46875 C 158.027344 98.082031 158.027344 97.675781 157.949219 97.285156 C 157.886719 96.972656 157.761719 96.679688 157.621094 96.414062 C 157.542969 96.257812 157.46875 96.101562 157.375 95.960938 C 157.296875 95.835938 157.203125 95.742188 157.0625 95.695312 C 157.015625 95.679688 156.953125 95.664062 156.890625 95.664062 C 156.78125 95.679688 156.6875 95.710938 156.609375 95.757812 Z M 156.609375 95.757812 " fill-opacity="1" fill-rule="nonzero"/></g><path fill="#ffffff" d="M 194.40625 77.875 C 194.28125 77.953125 194.15625 78.046875 194.03125 78.140625 C 193.875 78.261719 193.785156 78.417969 193.675781 78.574219 C 193.566406 78.714844 193.503906 78.933594 193.441406 79.089844 C 193.394531 79.199219 193.363281 79.308594 193.316406 79.417969 C 193.222656 79.679688 193.175781 79.945312 193.128906 80.210938 C 193.066406 80.554688 193.035156 80.894531 192.988281 81.253906 C 192.925781 81.785156 192.894531 82.3125 192.894531 82.84375 C 192.691406 83.234375 192.460938 83.621094 192.210938 83.980469 C 191.914062 84.339844 191.585938 84.683594 191.210938 84.976562 C 190.933594 85.164062 190.652344 85.335938 190.339844 85.476562 C 189.949219 85.617188 189.5625 85.742188 189.15625 85.804688 C 188.65625 85.851562 188.144531 85.851562 187.644531 85.789062 C 186.976562 85.679688 186.335938 85.460938 185.714844 85.210938 C 185.167969 84.960938 184.667969 84.683594 184.1875 84.324219 C 183.890625 84.089844 183.625 83.824219 183.390625 83.542969 C 183.203125 83.28125 183.050781 83 182.910156 82.703125 C 182.816406 82.46875 182.753906 82.234375 182.691406 81.988281 C 182.597656 81.566406 182.441406 81.175781 182.269531 80.773438 C 182.050781 80.242188 181.769531 79.726562 181.335938 79.355469 C 180.945312 79.585938 180.648438 79.929688 180.398438 80.304688 C 180.214844 80.570312 180.105469 80.894531 180.011719 81.207031 C 179.886719 81.660156 179.902344 82.144531 179.980469 82.59375 C 180.105469 83.203125 180.339844 83.761719 180.632812 84.308594 C 180.929688 84.867188 181.351562 85.398438 181.816406 85.835938 C 182.269531 86.253906 182.769531 86.613281 183.296875 86.941406 C 183.859375 87.285156 184.480469 87.535156 185.089844 87.75 C 186.257812 88.171875 187.503906 88.390625 188.75 88.3125 C 190.011719 88.25 191.257812 87.84375 192.320312 87.144531 C 192.769531 86.832031 193.191406 86.457031 193.566406 86.054688 C 193.597656 86.132812 193.644531 86.207031 193.675781 86.269531 C 193.921875 86.785156 194.3125 87.253906 194.71875 87.65625 C 195.140625 88.0625 195.621094 88.421875 196.152344 88.6875 C 196.679688 88.964844 197.257812 89.152344 197.835938 89.324219 C 198.394531 89.496094 198.972656 89.589844 199.5625 89.621094 C 199.90625 89.636719 200.25 89.589844 200.589844 89.542969 C 200.871094 89.496094 201.152344 89.433594 201.433594 89.355469 C 202.570312 89.011719 203.613281 88.28125 204.378906 87.378906 C 205.09375 86.519531 205.78125 85.492188 205.71875 84.324219 C 205.6875 83.777344 205.484375 83.171875 205.0625 82.796875 C 204.78125 83.015625 204.535156 83.25 204.300781 83.515625 C 204.019531 83.855469 203.738281 84.183594 203.472656 84.542969 C 203.210938 84.882812 203.023438 85.273438 202.773438 85.632812 C 202.539062 85.914062 202.304688 86.179688 202.023438 86.410156 C 201.730469 86.628906 201.417969 86.816406 201.089844 86.972656 C 200.808594 87.082031 200.515625 87.160156 200.203125 87.207031 C 199.9375 87.238281 199.671875 87.238281 199.40625 87.222656 C 198.816406 87.113281 198.238281 86.941406 197.679688 86.707031 C 197.382812 86.566406 197.117188 86.410156 196.851562 86.238281 C 196.617188 86.054688 196.417969 85.851562 196.230469 85.617188 C 196.074219 85.398438 195.949219 85.179688 195.839844 84.945312 C 195.714844 84.621094 195.621094 84.292969 195.574219 83.964844 C 195.527344 83.542969 195.527344 83.125 195.527344 82.703125 C 195.699219 82.21875 195.855469 81.722656 195.996094 81.207031 C 196.136719 80.695312 196.292969 80.195312 196.386719 79.664062 C 196.417969 79.464844 196.480469 79.261719 196.449219 79.058594 C 196.449219 78.824219 196.386719 78.621094 196.277344 78.417969 C 196.199219 78.277344 196.105469 78.167969 195.996094 78.046875 C 195.839844 77.890625 195.652344 77.78125 195.433594 77.71875 C 195.324219 77.6875 195.199219 77.671875 195.078125 77.671875 C 194.828125 77.703125 194.59375 77.765625 194.40625 77.875 Z M 197.445312 86.660156 C 197.460938 86.660156 197.476562 86.675781 197.476562 86.675781 C 197.476562 86.660156 197.460938 86.660156 197.445312 86.660156 Z M 197.445312 86.660156 " fill-opacity="1" fill-rule="nonzero"/><path fill="#ffffff" d="M 204.71875 81.050781 C 204.253906 81.441406 203.957031 82.003906 203.800781 82.5625 C 203.769531 82.65625 203.753906 82.75 203.753906 82.84375 C 203.722656 83.078125 203.691406 83.28125 203.707031 83.515625 C 203.722656 83.871094 203.769531 84.246094 203.832031 84.605469 C 203.925781 85.164062 204.160156 85.710938 204.378906 86.222656 C 204.609375 86.738281 204.9375 87.191406 205.296875 87.640625 C 205.640625 88.09375 206.074219 88.453125 206.527344 88.796875 C 207.445312 89.480469 208.539062 89.949219 209.660156 90.230469 C 210.25 90.382812 210.859375 90.476562 211.464844 90.507812 C 212.027344 90.539062 212.589844 90.460938 213.132812 90.367188 C 213.664062 90.273438 214.175781 90.027344 214.644531 89.761719 C 214.832031 89.652344 215.003906 89.542969 215.175781 89.417969 C 215.34375 90.136719 215.609375 90.835938 216 91.476562 C 216.578125 92.410156 217.386719 93.1875 218.351562 93.734375 C 218.835938 94.015625 219.367188 94.21875 219.894531 94.402344 C 220.425781 94.589844 220.96875 94.746094 221.515625 94.839844 C 222.074219 94.949219 222.667969 95.011719 223.246094 95.011719 C 223.820312 95.011719 224.414062 94.933594 224.972656 94.824219 C 225.550781 94.714844 226.097656 94.527344 226.625 94.292969 C 227.15625 94.0625 227.636719 93.78125 228.089844 93.4375 C 228.308594 93.265625 228.527344 93.09375 228.746094 92.910156 C 228.945312 92.722656 229.117188 92.519531 229.289062 92.332031 C 229.726562 91.832031 230.054688 91.242188 230.132812 90.570312 C 230.191406 90.089844 230.054688 89.574219 229.664062 89.261719 C 229.367188 89.027344 229.007812 88.980469 228.667969 89.136719 C 228.683594 89.230469 228.699219 89.324219 228.714844 89.417969 C 228.714844 89.464844 228.714844 89.511719 228.714844 89.558594 C 228.699219 89.605469 228.699219 89.636719 228.683594 89.683594 C 228.683594 89.699219 228.667969 89.714844 228.652344 89.730469 C 228.371094 90.058594 228.027344 90.320312 227.746094 90.632812 C 227.605469 90.804688 227.464844 90.976562 227.3125 91.132812 C 227.15625 91.304688 227 91.445312 226.828125 91.582031 C 226.453125 91.847656 226.066406 92.082031 225.644531 92.269531 C 225.175781 92.441406 224.710938 92.566406 224.226562 92.660156 C 223.664062 92.722656 223.105469 92.722656 222.527344 92.660156 C 221.765625 92.535156 221.03125 92.316406 220.332031 92.035156 C 219.910156 91.847656 219.503906 91.628906 219.132812 91.367188 C 218.882812 91.148438 218.648438 90.914062 218.445312 90.664062 C 218.242188 90.382812 218.070312 90.105469 217.933594 89.792969 C 217.746094 89.277344 217.605469 88.75 217.527344 88.21875 C 217.464844 87.59375 217.449219 86.957031 217.496094 86.316406 C 217.574219 86.148438 217.652344 85.976562 217.730469 85.804688 C 217.855469 85.523438 217.964844 85.242188 218.054688 84.945312 C 218.164062 84.589844 218.101562 84.214844 218.011719 83.871094 C 217.917969 83.542969 217.714844 83.265625 217.417969 83.109375 C 217.214844 82.984375 216.996094 82.9375 216.761719 82.9375 C 216.53125 82.9375 216.3125 83 216.109375 83.109375 C 215.921875 83.1875 215.84375 83.25 215.671875 83.390625 C 215.421875 83.574219 215.332031 83.824219 215.222656 84.105469 C 215.082031 84.449219 215.066406 84.855469 215.019531 85.226562 C 215.019531 85.210938 215.019531 85.195312 215.019531 85.179688 C 214.972656 85.492188 214.941406 85.804688 214.910156 86.117188 C 214.785156 86.332031 214.660156 86.550781 214.519531 86.753906 C 214.316406 86.988281 214.097656 87.222656 213.867188 87.410156 C 213.632812 87.578125 213.382812 87.71875 213.117188 87.84375 C 212.898438 87.921875 212.664062 87.984375 212.433594 88.03125 C 212.058594 88.0625 211.683594 88.0625 211.3125 88.03125 C 210.6875 87.921875 210.078125 87.75 209.488281 87.519531 C 209.019531 87.300781 208.570312 87.050781 208.164062 86.738281 C 207.882812 86.503906 207.632812 86.253906 207.398438 85.976562 C 207.183594 85.664062 206.996094 85.351562 206.839844 85.007812 C 206.714844 84.667969 206.605469 84.324219 206.542969 83.949219 C 206.527344 83.652344 206.527344 83.375 206.496094 83.078125 C 206.464844 82.6875 206.386719 82.296875 206.308594 81.925781 C 206.199219 81.410156 206.011719 80.910156 205.703125 80.492188 C 205.296875 80.601562 205 80.804688 204.71875 81.050781 Z M 204.71875 81.050781 " fill-opacity="1" fill-rule="nonzero"/><path fill="#ffffff" d="M 226.453125 94.015625 C 226.296875 94.1875 226.15625 94.386719 226.019531 94.589844 C 225.878906 94.808594 225.800781 95.058594 225.707031 95.292969 C 225.613281 95.527344 225.597656 95.835938 225.566406 96.070312 C 225.535156 96.289062 225.535156 96.523438 225.535156 96.742188 C 225.535156 97.175781 225.597656 97.628906 225.675781 98.050781 C 225.753906 98.53125 225.957031 98.96875 226.15625 99.40625 C 226.5 100.167969 227.078125 100.839844 227.730469 101.367188 C 228.058594 101.632812 228.402344 101.882812 228.777344 102.070312 C 229.148438 102.273438 229.554688 102.425781 229.945312 102.566406 C 230.472656 102.769531 231.035156 102.910156 231.609375 102.925781 C 232.4375 102.957031 233.402344 102.660156 233.917969 101.976562 C 233.527344 101.523438 233.042969 101.164062 232.53125 100.855469 C 232.25 100.683594 231.953125 100.542969 231.640625 100.417969 C 231.5625 100.386719 231.472656 100.355469 231.394531 100.339844 C 231.160156 100.277344 230.925781 100.199219 230.707031 100.105469 C 230.347656 99.933594 230.007812 99.746094 229.679688 99.53125 C 229.445312 99.328125 229.226562 99.125 229.023438 98.890625 C 228.851562 98.640625 228.714844 98.390625 228.574219 98.128906 C 228.480469 97.863281 228.402344 97.582031 228.339844 97.300781 C 228.308594 96.945312 228.308594 96.585938 228.339844 96.226562 C 228.386719 95.945312 228.433594 95.664062 228.464844 95.371094 C 228.496094 95.058594 228.480469 94.746094 228.433594 94.433594 C 228.371094 93.9375 228.246094 93.4375 227.964844 93 C 227.375 93.171875 226.859375 93.5625 226.453125 94.015625 Z M 226.453125 94.015625 " fill-opacity="1" fill-rule="nonzero"/><path fill="#ffffff" d="M 171.847656 80.832031 C 171.660156 80.925781 171.488281 81.082031 171.519531 81.300781 C 171.535156 81.300781 171.550781 81.300781 171.566406 81.300781 C 171.566406 81.300781 171.550781 81.300781 171.550781 81.300781 C 171.566406 81.300781 171.582031 81.300781 171.597656 81.316406 C 171.613281 81.316406 171.613281 81.332031 171.628906 81.332031 C 171.660156 81.363281 171.691406 81.394531 171.707031 81.425781 C 171.738281 81.472656 171.753906 81.503906 171.785156 81.550781 C 171.785156 81.566406 171.800781 81.582031 171.800781 81.597656 C 171.847656 82.097656 171.816406 82.59375 171.832031 83.09375 C 171.832031 83.375 171.847656 83.636719 171.847656 83.917969 C 171.832031 84.214844 171.816406 84.496094 171.769531 84.792969 C 171.691406 85.351562 171.566406 85.898438 171.441406 86.457031 C 171.316406 86.988281 171.128906 87.488281 170.929688 88 C 170.648438 88.640625 170.304688 89.246094 169.898438 89.824219 C 169.558594 90.242188 169.167969 90.632812 168.746094 90.992188 C 168.355469 91.273438 167.9375 91.523438 167.5 91.722656 C 167.109375 91.878906 166.722656 91.988281 166.300781 92.050781 C 166.050781 92.082031 165.800781 92.097656 165.554688 92.097656 C 165.445312 91.660156 165.289062 91.242188 165.054688 90.851562 C 164.695312 90.273438 164.167969 89.792969 163.589844 89.433594 C 163.324219 89.277344 163.027344 89.167969 162.75 89.074219 C 162.390625 88.964844 162.046875 89.011719 161.671875 89.074219 C 161.519531 89.105469 161.300781 89.199219 161.175781 89.261719 C 161.035156 89.339844 160.863281 89.449219 160.753906 89.558594 C 160.628906 89.683594 160.503906 89.824219 160.425781 89.964844 C 160.300781 90.152344 160.222656 90.351562 160.148438 90.554688 C 160.023438 90.898438 160.070312 91.273438 160.148438 91.613281 C 160.179688 91.769531 160.285156 91.988281 160.347656 92.128906 C 160.394531 92.238281 160.457031 92.332031 160.519531 92.441406 C 160.878906 93 161.410156 93.421875 161.984375 93.734375 C 162.390625 93.9375 162.796875 94.109375 163.214844 94.234375 C 163.121094 94.667969 162.996094 95.105469 162.84375 95.527344 C 162.640625 95.992188 162.390625 96.429688 162.09375 96.851562 C 161.875 97.097656 161.640625 97.332031 161.394531 97.535156 C 161.144531 97.707031 160.894531 97.863281 160.613281 98.003906 C 160.269531 98.128906 159.929688 98.222656 159.570312 98.269531 C 159.367188 98.285156 159.164062 98.300781 158.960938 98.300781 C 158.761719 98.300781 158.558594 98.285156 158.355469 98.253906 C 157.949219 98.191406 157.558594 98.113281 157.15625 98.003906 C 156.96875 97.957031 156.765625 97.894531 156.578125 97.832031 C 156.34375 97.753906 156.097656 97.707031 155.847656 97.660156 C 155.582031 97.628906 155.347656 97.597656 155.082031 97.582031 C 154.820312 97.582031 154.554688 97.613281 154.304688 97.660156 C 153.976562 97.707031 153.648438 97.832031 153.371094 97.988281 C 153.449219 98.40625 153.648438 98.796875 153.914062 99.140625 C 154.117188 99.40625 154.320312 99.625 154.570312 99.824219 C 154.742188 99.964844 154.894531 100.074219 155.082031 100.183594 C 155.316406 100.324219 155.582031 100.417969 155.832031 100.496094 C 156.46875 100.699219 157.125 100.824219 157.792969 100.917969 C 158.074219 100.949219 158.371094 100.980469 158.652344 100.996094 C 159.054688 101.007812 159.460938 100.964844 159.867188 100.917969 C 160.394531 100.839844 160.894531 100.714844 161.394531 100.511719 C 161.703125 100.386719 162 100.246094 162.296875 100.074219 C 162.625 99.871094 162.917969 99.625 163.214844 99.375 C 163.667969 98.984375 164.042969 98.515625 164.367188 98.019531 C 164.710938 97.488281 164.960938 96.898438 165.195312 96.320312 C 165.398438 95.789062 165.539062 95.230469 165.613281 94.667969 C 165.628906 94.605469 165.628906 94.542969 165.644531 94.480469 C 165.894531 94.464844 166.144531 94.449219 166.378906 94.417969 C 166.9375 94.339844 167.484375 94.234375 168.015625 94.03125 C 169.011719 93.640625 169.914062 93.078125 170.695312 92.347656 C 171.066406 92.003906 171.394531 91.597656 171.707031 91.195312 C 172.019531 90.789062 172.285156 90.367188 172.515625 89.917969 C 173.484375 88.0625 173.949219 85.976562 174.042969 83.902344 C 174.074219 83.390625 174.042969 82.859375 173.902344 82.359375 C 173.824219 82.097656 173.683594 81.847656 173.546875 81.613281 C 173.390625 81.363281 173.15625 81.113281 172.90625 80.941406 C 172.703125 80.820312 172.453125 80.726562 172.222656 80.726562 C 172.113281 80.742188 171.972656 80.773438 171.847656 80.832031 Z M 171.613281 81.316406 C 171.613281 81.316406 171.628906 81.316406 171.628906 81.316406 C 171.628906 81.332031 171.613281 81.332031 171.613281 81.316406 Z M 171.628906 81.332031 C 171.628906 81.332031 171.644531 81.332031 171.644531 81.332031 C 171.644531 81.332031 171.644531 81.332031 171.628906 81.332031 Z M 162.546875 90.945312 C 162.546875 90.960938 162.53125 90.960938 162.546875 90.945312 C 162.53125 90.960938 162.546875 90.960938 162.546875 90.945312 Z M 162.140625 91.398438 C 162.125 91.398438 162.109375 91.398438 162.09375 91.398438 C 162.109375 91.398438 162.125 91.398438 162.140625 91.398438 Z M 162.140625 91.398438 " fill-opacity="1" fill-rule="nonzero"/><path fill="#ffffff" d="M 176.863281 79.585938 C 176.488281 79.726562 176.179688 79.945312 175.898438 80.210938 C 175.695312 80.398438 175.539062 80.617188 175.382812 80.820312 C 175.164062 81.113281 175.007812 81.410156 174.886719 81.753906 C 174.792969 81.988281 174.761719 82.21875 174.714844 82.453125 C 174.667969 82.8125 174.621094 83.15625 174.621094 83.527344 C 174.621094 84.152344 174.699219 84.792969 174.855469 85.382812 C 174.933594 85.664062 175.054688 85.945312 175.179688 86.207031 C 175.289062 86.457031 175.429688 86.691406 175.570312 86.910156 C 175.867188 87.394531 176.242188 87.828125 176.613281 88.25 C 176.941406 88.625 177.332031 88.949219 177.71875 89.261719 C 178.203125 89.636719 178.703125 89.996094 179.230469 90.289062 C 180.199219 90.835938 181.257812 91.226562 182.316406 91.570312 C 182.847656 91.738281 183.375 91.847656 183.921875 91.941406 C 184.3125 92.003906 184.683594 92.066406 185.089844 92.035156 C 185.898438 91.957031 186.773438 91.691406 187.332031 91.070312 C 187.128906 90.804688 186.914062 90.585938 186.648438 90.382812 C 186.210938 90.058594 185.730469 89.792969 185.199219 89.636719 C 185.089844 89.605469 184.980469 89.589844 184.886719 89.558594 C 184.542969 89.480469 184.203125 89.433594 183.875 89.355469 C 183.234375 89.199219 182.628906 88.980469 182.019531 88.734375 C 181.210938 88.375 180.445312 87.953125 179.730469 87.425781 C 179.214844 87.003906 178.75 86.550781 178.328125 86.039062 C 178.078125 85.695312 177.859375 85.351562 177.675781 84.976562 C 177.582031 84.730469 177.519531 84.464844 177.472656 84.199219 C 177.441406 83.792969 177.441406 83.40625 177.472656 83 C 177.519531 82.703125 177.566406 82.40625 177.597656 82.113281 C 177.628906 81.722656 177.582031 81.347656 177.519531 80.972656 C 177.472656 80.664062 177.347656 80.382812 177.222656 80.101562 C 177.097656 79.914062 176.988281 79.742188 176.863281 79.585938 Z M 186.710938 90.460938 C 186.679688 90.445312 186.648438 90.414062 186.632812 90.398438 C 186.664062 90.414062 186.695312 90.445312 186.710938 90.460938 Z M 186.632812 90.398438 Z M 186.632812 90.398438 C 186.617188 90.382812 186.585938 90.367188 186.570312 90.351562 C 186.585938 90.367188 186.601562 90.382812 186.632812 90.398438 Z M 186.632812 90.398438 " fill-opacity="1" fill-rule="nonzero"/><path fill="#ffffff" d="M 167.078125 51.683594 C 166.535156 51.808594 165.988281 51.996094 165.476562 52.214844 C 164.851562 52.464844 164.257812 52.757812 163.699219 53.117188 C 161.625 54.457031 160.054688 56.53125 159.445312 58.929688 C 159.289062 59.519531 159.226562 60.113281 159.148438 60.71875 C 159.117188 60.953125 159.085938 61.1875 159.070312 61.40625 C 158.855469 61.5 158.636719 61.59375 158.433594 61.703125 C 157.902344 61.984375 157.4375 62.355469 156.984375 62.730469 C 156.53125 63.105469 156.113281 63.539062 155.753906 63.992188 C 154.195312 65.941406 153.371094 68.433594 153.292969 70.925781 C 153.277344 71.5 153.339844 72.09375 153.492188 72.640625 C 153.570312 72.902344 153.695312 73.167969 153.804688 73.433594 C 153.929688 73.730469 154.148438 73.996094 154.367188 74.210938 C 154.554688 74.382812 154.773438 74.539062 154.988281 74.679688 C 155.207031 74.804688 155.457031 74.898438 155.707031 74.976562 C 156.066406 75.085938 156.484375 75.101562 156.8125 74.898438 C 156.765625 74.789062 156.71875 74.695312 156.6875 74.585938 C 156.53125 74.210938 156.390625 73.839844 156.203125 73.464844 C 156.003906 73.058594 155.769531 72.671875 155.582031 72.265625 C 155.503906 72.03125 155.425781 71.796875 155.394531 71.5625 C 155.347656 71.066406 155.363281 70.566406 155.425781 70.070312 C 155.566406 69.195312 155.800781 68.339844 156.128906 67.511719 C 156.421875 66.84375 156.8125 66.1875 157.25 65.597656 C 157.667969 65.082031 158.136719 64.617188 158.652344 64.210938 C 158.898438 64.023438 159.164062 63.851562 159.429688 63.710938 C 159.726562 64.476562 160.210938 65.175781 160.816406 65.738281 C 161.734375 66.578125 162.949219 67.21875 164.230469 67.140625 C 164.882812 67.09375 165.507812 66.84375 166.003906 66.421875 C 166.488281 66.019531 166.863281 65.410156 166.984375 64.785156 C 167.125 64.148438 167.078125 63.460938 166.800781 62.855469 C 166.535156 62.292969 166.019531 61.890625 165.507812 61.59375 C 164.476562 60.984375 163.230469 60.765625 162.046875 60.78125 C 161.8125 60.78125 161.5625 60.796875 161.332031 60.828125 C 161.441406 60.160156 161.59375 59.488281 161.84375 58.851562 C 162.109375 58.273438 162.4375 57.714844 162.8125 57.199219 C 163.230469 56.683594 163.714844 56.21875 164.230469 55.796875 C 164.773438 55.390625 165.351562 55.050781 165.972656 54.769531 C 166.707031 54.488281 167.453125 54.269531 168.21875 54.144531 C 169.339844 54.019531 170.492188 54.066406 171.613281 54.207031 C 172.035156 54.269531 172.4375 54.347656 172.84375 54.457031 C 173.078125 54.519531 173.3125 54.582031 173.53125 54.660156 C 173.792969 54.753906 174.058594 54.847656 174.339844 54.910156 C 174.839844 55.019531 175.351562 55.066406 175.851562 55.003906 C 176.226562 54.957031 176.597656 54.894531 176.925781 54.722656 C 176.863281 54.285156 176.691406 53.898438 176.441406 53.523438 C 176.273438 53.273438 176.070312 53.039062 175.835938 52.820312 C 175.492188 52.496094 175.085938 52.277344 174.652344 52.105469 C 173.453125 51.652344 172.144531 51.480469 170.867188 51.402344 C 170.539062 51.386719 170.226562 51.371094 169.898438 51.371094 C 168.964844 51.386719 168.015625 51.464844 167.078125 51.683594 Z M 162.917969 63.121094 C 163.277344 63.183594 163.605469 63.261719 163.949219 63.382812 C 164.183594 63.492188 164.398438 63.601562 164.601562 63.757812 C 164.648438 63.804688 164.695312 63.851562 164.742188 63.898438 C 164.742188 63.898438 164.742188 63.914062 164.757812 63.914062 C 164.773438 63.945312 164.773438 63.976562 164.789062 64.023438 C 164.789062 64.117188 164.789062 64.226562 164.789062 64.320312 C 164.773438 64.382812 164.757812 64.445312 164.742188 64.523438 C 164.695312 64.601562 164.664062 64.664062 164.617188 64.738281 C 164.585938 64.769531 164.554688 64.800781 164.523438 64.847656 C 164.460938 64.894531 164.382812 64.925781 164.304688 64.972656 C 164.230469 65.003906 164.167969 65.019531 164.089844 65.035156 C 163.980469 65.035156 163.855469 65.035156 163.746094 65.035156 C 163.558594 65.003906 163.386719 64.957031 163.199219 64.894531 C 162.949219 64.769531 162.734375 64.632812 162.5 64.476562 C 162.265625 64.289062 162.046875 64.070312 161.84375 63.835938 C 161.6875 63.617188 161.5625 63.382812 161.457031 63.152344 C 161.9375 63.074219 162.4375 63.074219 162.917969 63.121094 Z M 162.917969 63.121094 " fill-opacity="1" fill-rule="nonzero"/><g clip-path="url(#c72b27ec03)"><path fill="#ffffff" d="M 151.1875 76.722656 C 150.921875 76.769531 150.660156 76.84375 150.410156 76.9375 C 149.785156 77.15625 149.179688 77.4375 148.601562 77.796875 C 148.074219 78.125 147.574219 78.511719 147.121094 78.933594 C 146.640625 79.371094 146.234375 79.867188 145.84375 80.382812 C 145.113281 81.347656 144.675781 82.484375 144.410156 83.652344 C 144.269531 84.261719 144.175781 84.867188 144.144531 85.492188 C 144.113281 86.117188 144.207031 86.769531 144.378906 87.363281 C 144.457031 87.65625 144.597656 87.953125 144.722656 88.234375 C 144.847656 88.515625 145.035156 88.765625 145.222656 88.996094 C 145.53125 89.386719 145.890625 89.714844 146.28125 90.011719 C 146.1875 90.257812 146.09375 90.523438 146.015625 90.789062 C 145.859375 91.335938 145.765625 91.894531 145.6875 92.441406 C 145.59375 93.078125 145.53125 93.71875 145.53125 94.371094 C 145.515625 95.589844 145.703125 96.835938 146.09375 97.988281 C 146.28125 98.5625 146.53125 99.125 146.824219 99.652344 C 147.121094 100.183594 147.464844 100.652344 147.839844 101.117188 C 148.011719 101.335938 148.195312 101.554688 148.398438 101.742188 C 148.632812 101.945312 148.898438 102.132812 149.179688 102.273438 C 149.472656 102.425781 149.800781 102.519531 150.128906 102.566406 C 150.488281 102.628906 150.875 102.628906 151.1875 102.441406 C 151.15625 102.363281 151.125 102.273438 151.09375 102.195312 C 151 101.929688 150.859375 101.679688 150.722656 101.445312 C 150.566406 101.179688 150.394531 100.933594 150.238281 100.683594 C 149.972656 100.292969 149.644531 99.949219 149.351562 99.578125 C 148.976562 99.078125 148.664062 98.546875 148.414062 97.972656 C 148.164062 97.316406 147.980469 96.664062 147.871094 95.976562 C 147.777344 95.089844 147.777344 94.203125 147.871094 93.3125 C 147.933594 92.910156 148.011719 92.503906 148.105469 92.097656 C 148.179688 91.738281 148.273438 91.382812 148.398438 91.039062 C 148.945312 91.195312 149.519531 91.273438 150.082031 91.351562 C 150.378906 91.382812 150.660156 91.382812 150.953125 91.367188 C 151.265625 91.335938 151.59375 91.289062 151.890625 91.179688 C 152.214844 91.054688 152.558594 90.898438 152.824219 90.648438 C 152.949219 90.523438 153.074219 90.382812 153.167969 90.242188 C 153.292969 90.058594 153.386719 89.855469 153.449219 89.636719 C 153.464844 89.496094 153.480469 89.355469 153.507812 89.214844 C 153.492188 89.042969 153.480469 88.875 153.433594 88.703125 C 153.339844 88.359375 153.121094 88.0625 152.886719 87.796875 C 152.652344 87.535156 152.308594 87.394531 152 87.269531 C 151.78125 87.175781 151.5625 87.113281 151.34375 87.050781 C 151.03125 86.972656 150.707031 86.925781 150.394531 86.894531 C 150.082031 86.863281 149.753906 86.925781 149.457031 86.988281 C 149.148438 87.050781 148.851562 87.175781 148.554688 87.300781 C 148.273438 87.441406 148.042969 87.609375 147.777344 87.8125 C 147.652344 87.921875 147.527344 88.03125 147.417969 88.171875 C 147.246094 88.015625 147.089844 87.859375 146.949219 87.6875 C 146.855469 87.550781 146.765625 87.394531 146.6875 87.238281 C 146.578125 86.941406 146.5 86.644531 146.453125 86.347656 C 146.421875 86.039062 146.4375 85.726562 146.46875 85.398438 C 146.59375 84.667969 146.777344 83.964844 147.058594 83.28125 C 147.261719 82.828125 147.511719 82.40625 147.808594 82.003906 C 148.210938 81.519531 148.648438 81.066406 149.148438 80.664062 C 149.628906 80.320312 150.128906 80.023438 150.660156 79.773438 C 151.0625 79.617188 151.484375 79.492188 151.90625 79.417969 C 152.183594 79.386719 152.449219 79.339844 152.730469 79.292969 C 152.980469 79.246094 153.230469 79.167969 153.480469 79.105469 C 153.867188 78.996094 154.257812 78.917969 154.648438 78.777344 C 154.632812 78.339844 154.445312 77.953125 154.195312 77.625 C 154.007812 77.390625 153.773438 77.21875 153.523438 77.0625 C 153.371094 76.96875 153.152344 76.875 152.996094 76.828125 C 152.746094 76.738281 152.511719 76.707031 152.246094 76.675781 C 152.167969 76.660156 152.09375 76.660156 152.03125 76.660156 C 151.734375 76.628906 151.453125 76.675781 151.1875 76.722656 Z M 151.25 89.464844 C 151.25 89.464844 151.25 89.480469 151.25 89.480469 C 151.25 89.480469 151.25 89.464844 151.25 89.464844 Z M 151.25 89.464844 " fill-opacity="1" fill-rule="nonzero"/></g><g clip-path="url(#4263f8ee96)"><path fill="#ffffff" d="M 204.144531 42.101562 C 202.898438 42.101562 201.636719 42.257812 200.421875 42.539062 C 199.25 42.820312 198.082031 43.222656 197.039062 43.832031 C 196.742188 44.003906 196.464844 44.191406 196.199219 44.410156 C 196.167969 44.394531 196.121094 44.378906 196.089844 44.363281 C 195.09375 43.957031 194.046875 43.753906 192.972656 43.660156 C 192.429688 43.613281 191.898438 43.613281 191.351562 43.597656 C 190.761719 43.597656 190.167969 43.613281 189.578125 43.660156 C 188.425781 43.738281 187.253906 43.925781 186.132812 44.191406 C 185.042969 44.457031 183.984375 44.890625 183.019531 45.453125 C 182.582031 45.71875 182.160156 45.996094 181.753906 46.308594 C 181.273438 46.683594 180.820312 47.074219 180.382812 47.492188 C 179.605469 48.289062 178.921875 49.207031 178.40625 50.1875 C 178.140625 50.703125 177.90625 51.261719 177.734375 51.808594 C 177.644531 52.089844 177.582031 52.371094 177.519531 52.648438 C 177.441406 53.007812 177.394531 53.367188 177.441406 53.742188 C 177.457031 53.914062 177.472656 54.066406 177.519531 54.222656 C 177.550781 54.394531 177.660156 54.613281 177.734375 54.769531 C 177.875 55.035156 178.046875 55.269531 178.25 55.484375 C 178.515625 55.765625 178.859375 56 179.230469 56.125 C 179.652344 55.5625 179.839844 54.894531 180.042969 54.222656 C 180.167969 53.804688 180.214844 53.382812 180.308594 52.960938 C 180.398438 52.558594 180.523438 52.152344 180.679688 51.761719 C 180.976562 51.109375 181.335938 50.5 181.769531 49.921875 C 182.300781 49.269531 182.894531 48.675781 183.546875 48.148438 C 184.203125 47.664062 184.902344 47.226562 185.636719 46.902344 C 186.757812 46.449219 187.957031 46.183594 189.15625 46.011719 C 189.886719 45.917969 190.636719 45.871094 191.367188 45.859375 C 192.117188 45.84375 192.863281 45.84375 193.613281 45.917969 C 193.875 45.964844 194.15625 46.011719 194.421875 46.074219 C 194.40625 46.089844 194.390625 46.121094 194.375 46.136719 C 194 46.605469 193.644531 47.089844 193.347656 47.601562 C 193.019531 48.164062 192.753906 48.785156 192.550781 49.410156 C 192.351562 49.984375 192.242188 50.609375 192.195312 51.21875 C 192.132812 51.886719 192.226562 52.574219 192.351562 53.226562 C 192.460938 53.804688 192.660156 54.363281 192.910156 54.894531 C 193.050781 55.175781 193.253906 55.421875 193.441406 55.65625 C 193.660156 55.9375 193.953125 56.15625 194.25 56.359375 C 194.34375 56.4375 194.46875 56.484375 194.578125 56.53125 C 194.75 56.609375 194.90625 56.667969 195.09375 56.714844 C 195.402344 56.792969 195.730469 56.792969 196.042969 56.777344 C 196.371094 56.761719 196.679688 56.699219 196.992188 56.625 C 197.351562 56.53125 197.695312 56.359375 198.019531 56.203125 C 198.566406 55.953125 199.050781 55.609375 199.484375 55.191406 C 199.71875 54.972656 199.90625 54.707031 200.109375 54.441406 C 200.328125 54.144531 200.453125 53.804688 200.574219 53.476562 C 200.667969 53.226562 200.730469 52.960938 200.777344 52.695312 C 200.824219 52.386719 200.855469 52.058594 200.855469 51.746094 C 200.839844 51.417969 200.792969 51.09375 200.746094 50.78125 C 200.699219 50.453125 200.636719 50.125 200.558594 49.816406 C 200.421875 49.222656 200.171875 48.660156 199.9375 48.101562 C 199.828125 47.851562 199.703125 47.601562 199.5625 47.351562 C 199.390625 47.042969 199.160156 46.746094 198.941406 46.464844 C 198.738281 46.214844 198.519531 45.964844 198.285156 45.75 C 198.582031 45.5625 198.894531 45.40625 199.21875 45.265625 C 200.28125 44.84375 201.402344 44.546875 202.539062 44.378906 C 203.535156 44.253906 204.550781 44.207031 205.5625 44.316406 C 206.246094 44.425781 206.917969 44.609375 207.570312 44.859375 C 208.117188 45.109375 208.617188 45.40625 209.082031 45.75 C 209.535156 46.105469 209.941406 46.511719 210.296875 46.949219 C 210.8125 47.632812 211.25 48.382812 211.589844 49.160156 C 211.917969 49.953125 212.167969 50.78125 212.339844 51.621094 C 212.324219 51.636719 212.308594 51.636719 212.292969 51.652344 C 212.011719 51.824219 211.761719 52.027344 211.511719 52.246094 C 211.046875 52.632812 210.65625 53.164062 210.390625 53.726562 C 210.25 54.019531 210.140625 54.316406 210.046875 54.628906 C 209.957031 54.941406 209.925781 55.28125 209.894531 55.609375 C 209.863281 55.890625 209.894531 56.15625 209.925781 56.4375 C 209.96875 56.792969 210.015625 57.136719 210.125 57.480469 C 210.328125 58.117188 210.75 58.710938 211.339844 59.039062 C 212.089844 59.441406 213.070312 59.164062 213.585938 58.523438 C 213.992188 58.023438 214.269531 57.449219 214.488281 56.839844 C 214.582031 56.578125 214.628906 56.28125 214.675781 56 C 214.738281 55.625 214.769531 55.238281 214.769531 54.847656 C 214.785156 54.332031 214.738281 53.804688 214.675781 53.289062 C 214.925781 53.226562 215.160156 53.164062 215.40625 53.117188 C 215.703125 53.085938 216 53.085938 216.296875 53.117188 C 216.640625 53.179688 216.964844 53.257812 217.277344 53.382812 C 217.558594 53.507812 217.808594 53.664062 218.054688 53.835938 C 218.257812 54.003906 218.429688 54.191406 218.601562 54.394531 C 218.820312 54.707031 218.992188 55.019531 219.148438 55.359375 C 219.226562 55.5625 219.304688 55.78125 219.367188 56 C 219.472656 56.359375 219.613281 56.699219 219.769531 57.042969 C 219.988281 57.527344 220.316406 57.933594 220.519531 58.414062 C 220.550781 58.476562 220.566406 58.554688 220.597656 58.617188 C 221 58.554688 221.28125 58.257812 221.484375 57.917969 C 221.625 57.683594 221.703125 57.386719 221.75 57.121094 C 221.8125 56.777344 221.828125 56.453125 221.796875 56.109375 C 221.765625 55.90625 221.75 55.703125 221.6875 55.515625 C 221.65625 55.375 221.59375 55.238281 221.546875 55.097656 C 221.4375 54.769531 221.296875 54.457031 221.15625 54.144531 C 220.890625 53.554688 220.519531 53.023438 220.097656 52.542969 C 219.707031 52.105469 219.210938 51.746094 218.695312 51.449219 C 218.132812 51.140625 217.511719 50.921875 216.871094 50.8125 C 216.546875 50.75 216.21875 50.71875 215.890625 50.703125 C 215.546875 50.6875 215.207031 50.734375 214.863281 50.78125 C 214.660156 50.8125 214.457031 50.84375 214.253906 50.890625 C 213.992188 49.738281 213.585938 48.613281 213.054688 47.554688 C 212.527344 46.496094 211.808594 45.46875 210.9375 44.65625 C 210.5 44.253906 210.03125 43.894531 209.535156 43.566406 C 208.988281 43.207031 208.398438 42.960938 207.804688 42.726562 C 206.636719 42.273438 205.390625 42.101562 204.175781 42.101562 C 204.160156 42.101562 204.144531 42.101562 204.144531 42.101562 Z M 196.570312 47.105469 C 196.867188 47.367188 197.148438 47.648438 197.398438 47.960938 C 197.695312 48.382812 197.925781 48.816406 198.128906 49.285156 C 198.394531 49.9375 198.566406 50.59375 198.660156 51.277344 C 198.691406 51.574219 198.707031 51.855469 198.691406 52.152344 C 198.644531 52.386719 198.582031 52.601562 198.503906 52.820312 C 198.425781 52.976562 198.347656 53.132812 198.253906 53.273438 C 198.097656 53.460938 197.910156 53.632812 197.726562 53.804688 C 197.476562 53.972656 197.226562 54.113281 196.945312 54.238281 C 196.695312 54.332031 196.433594 54.425781 196.167969 54.488281 C 195.996094 54.503906 195.824219 54.503906 195.667969 54.503906 C 195.636719 54.503906 195.605469 54.488281 195.574219 54.472656 C 195.527344 54.441406 195.464844 54.410156 195.417969 54.378906 C 195.308594 54.285156 195.199219 54.175781 195.109375 54.066406 C 195.015625 53.929688 194.9375 53.789062 194.859375 53.632812 C 194.703125 53.226562 194.609375 52.789062 194.53125 52.355469 C 194.484375 51.933594 194.484375 51.527344 194.515625 51.109375 C 194.609375 50.5625 194.765625 50.046875 194.96875 49.535156 C 195.246094 48.910156 195.589844 48.320312 195.996094 47.773438 C 196.183594 47.523438 196.371094 47.304688 196.570312 47.105469 Z M 212.574219 54.753906 C 212.574219 54.941406 212.558594 55.128906 212.542969 55.296875 C 212.496094 55.578125 212.433594 55.859375 212.339844 56.125 C 212.324219 55.921875 212.324219 55.71875 212.339844 55.515625 C 212.386719 55.28125 212.449219 55.066406 212.527344 54.847656 C 212.542969 54.832031 212.558594 54.800781 212.574219 54.753906 Z M 212.574219 54.753906 " fill-opacity="1" fill-rule="nonzero"/></g><path fill="#ffffff" d="M 219.195312 50 C 218.679688 50.203125 218.226562 50.484375 217.902344 50.921875 C 218.195312 51.355469 218.617188 51.683594 219.070312 51.949219 C 219.394531 52.152344 219.753906 52.292969 220.113281 52.433594 C 220.363281 52.542969 220.613281 52.617188 220.859375 52.710938 C 221.15625 52.851562 221.453125 53.023438 221.71875 53.210938 C 222.03125 53.476562 222.324219 53.773438 222.589844 54.082031 C 222.902344 54.519531 223.152344 54.972656 223.355469 55.453125 C 223.554688 55.953125 223.710938 56.453125 223.851562 56.980469 C 223.992188 57.558594 224.101562 58.164062 224.179688 58.757812 C 224.242188 59.289062 224.273438 59.816406 224.257812 60.347656 C 223.835938 60.503906 223.429688 60.671875 223.042969 60.875 C 222.527344 61.140625 222.046875 61.5 221.609375 61.875 C 221.140625 62.277344 220.75 62.761719 220.457031 63.292969 C 220.300781 63.570312 220.175781 63.882812 220.066406 64.195312 C 219.957031 64.507812 219.925781 64.832031 219.894531 65.144531 C 219.863281 65.425781 219.925781 65.722656 219.972656 66.003906 C 219.988281 66.109375 220.019531 66.203125 220.066406 66.296875 C 220.160156 66.53125 220.285156 66.8125 220.472656 66.984375 C 220.734375 67.21875 221.03125 67.402344 221.390625 67.480469 C 221.640625 67.542969 221.875 67.542969 222.121094 67.480469 C 222.292969 67.449219 222.449219 67.375 222.605469 67.296875 C 222.714844 67.25 222.808594 67.15625 222.902344 67.078125 C 223.058594 66.96875 223.199219 66.859375 223.355469 66.734375 C 223.585938 66.53125 223.820312 66.328125 224.039062 66.109375 C 224.460938 65.707031 224.816406 65.222656 225.160156 64.738281 C 225.503906 64.257812 225.769531 63.742188 226.019531 63.199219 C 226.171875 62.855469 226.296875 62.511719 226.40625 62.152344 C 226.84375 62.058594 227.28125 61.984375 227.714844 61.921875 C 228.589844 61.8125 229.476562 61.734375 230.347656 61.828125 C 230.894531 61.921875 231.425781 62.042969 231.9375 62.230469 C 232.265625 62.386719 232.578125 62.574219 232.871094 62.792969 C 233.292969 63.136719 233.683594 63.507812 234.027344 63.929688 C 234.382812 64.429688 234.664062 64.957031 234.914062 65.519531 C 235.195312 66.25 235.382812 67.015625 235.492188 67.777344 C 235.566406 68.402344 235.582031 69.023438 235.507812 69.648438 C 235.429688 70.070312 235.335938 70.488281 235.179688 70.878906 C 235.023438 71.222656 234.820312 71.5625 234.601562 71.875 C 234.570312 71.90625 234.554688 71.9375 234.523438 71.96875 C 234.367188 71.9375 234.210938 71.921875 234.058594 71.90625 C 233.777344 71.875 233.464844 71.90625 233.199219 71.96875 C 232.839844 72.046875 232.5 72.1875 232.171875 72.390625 C 231.921875 72.546875 231.6875 72.75 231.5 72.980469 C 231.238281 73.308594 231.066406 73.652344 231.082031 74.089844 C 231.097656 74.367188 231.160156 74.523438 231.269531 74.773438 C 231.332031 74.914062 231.425781 75.070312 231.53125 75.164062 C 231.546875 75.179688 231.5625 75.195312 231.59375 75.210938 C 231.734375 75.351562 231.90625 75.457031 232.109375 75.503906 C 232.28125 75.582031 232.484375 75.582031 232.671875 75.582031 C 233.292969 75.566406 233.839844 75.289062 234.351562 74.960938 C 234.898438 74.632812 235.382812 74.195312 235.816406 73.746094 C 236.675781 72.871094 237.234375 71.71875 237.484375 70.535156 C 237.609375 69.945312 237.671875 69.320312 237.65625 68.714844 C 237.65625 68.042969 237.546875 67.359375 237.421875 66.6875 C 237.21875 65.488281 236.769531 64.320312 236.160156 63.261719 C 235.863281 62.746094 235.492188 62.292969 235.085938 61.859375 C 234.648438 61.390625 234.152344 60.984375 233.621094 60.628906 C 233.136719 60.316406 232.609375 60.082031 232.0625 59.910156 C 231.472656 59.707031 230.847656 59.613281 230.222656 59.535156 C 229.070312 59.394531 227.886719 59.535156 226.734375 59.707031 C 226.734375 59.613281 226.734375 59.503906 226.734375 59.410156 C 226.71875 58.726562 226.625 58.039062 226.53125 57.355469 C 226.453125 56.746094 226.34375 56.15625 226.1875 55.5625 C 226.019531 54.925781 225.769531 54.316406 225.503906 53.726562 C 225.238281 53.132812 224.894531 52.601562 224.492188 52.089844 C 224.085938 51.574219 223.632812 51.15625 223.105469 50.765625 C 222.574219 50.375 221.984375 50.109375 221.359375 49.878906 C 221.046875 49.753906 220.707031 49.707031 220.378906 49.707031 C 219.957031 49.769531 219.566406 49.847656 219.195312 50 Z M 219.195312 50 " fill-opacity="1" fill-rule="nonzero"/><g clip-path="url(#7571842728)"><path fill="#ffffff" d="M 238.277344 71.640625 C 237.921875 71.65625 237.5625 71.734375 237.234375 71.875 C 237.296875 72.453125 237.546875 72.996094 237.890625 73.449219 C 238.125 73.761719 238.371094 74.058594 238.667969 74.304688 C 238.980469 74.570312 239.308594 74.789062 239.632812 75.023438 C 240.507812 75.707031 241.347656 76.472656 242.050781 77.34375 C 242.484375 77.921875 242.859375 78.542969 243.15625 79.214844 C 243.53125 80.179688 243.777344 81.207031 243.933594 82.234375 C 244.058594 83.265625 244.121094 84.308594 244.042969 85.351562 C 243.902344 85.226562 243.746094 85.117188 243.589844 85.007812 C 243.375 84.855469 243.140625 84.730469 242.890625 84.621094 C 242.59375 84.480469 242.296875 84.371094 241.988281 84.308594 C 241.628906 84.230469 241.238281 84.199219 240.867188 84.199219 C 239.585938 84.183594 238.308594 84.480469 237.203125 85.117188 C 236.707031 85.398438 236.253906 85.820312 235.894531 86.253906 C 235.691406 86.503906 235.519531 86.753906 235.367188 87.050781 C 235.210938 87.378906 235.101562 87.703125 235.039062 88.0625 C 234.992188 88.390625 234.960938 88.703125 234.976562 89.027344 C 234.976562 89.355469 235.039062 89.683594 235.101562 89.996094 C 235.164062 90.320312 235.289062 90.632812 235.429688 90.945312 C 235.550781 91.226562 235.691406 91.492188 235.878906 91.738281 C 236.050781 91.988281 236.253906 92.222656 236.488281 92.425781 C 236.628906 92.535156 236.753906 92.628906 236.90625 92.722656 C 237.046875 92.800781 237.234375 92.878906 237.390625 92.9375 C 237.609375 93.015625 237.84375 93.078125 238.078125 93.109375 C 238.277344 93.140625 238.464844 93.15625 238.652344 93.171875 C 238.902344 93.1875 239.136719 93.140625 239.386719 93.109375 C 239.960938 93.03125 240.539062 92.910156 241.082031 92.707031 C 241.691406 92.488281 242.296875 92.207031 242.84375 91.847656 C 243.265625 91.570312 243.636719 91.242188 243.980469 90.882812 C 244.089844 91.988281 244.105469 93.109375 243.980469 94.21875 C 243.855469 94.964844 243.667969 95.710938 243.390625 96.414062 C 243.09375 97.066406 242.765625 97.691406 242.375 98.285156 C 242.175781 98.609375 241.925781 98.921875 241.707031 99.25 C 241.597656 99.421875 241.503906 99.625 241.410156 99.808594 C 241.144531 100.402344 240.957031 101.007812 240.910156 101.664062 C 241.410156 101.789062 241.925781 101.570312 242.375 101.367188 C 242.546875 101.289062 242.703125 101.179688 242.859375 101.070312 C 242.984375 100.980469 243.109375 100.886719 243.21875 100.792969 C 243.515625 100.542969 243.746094 100.214844 243.964844 99.886719 C 244.667969 98.875 245.257812 97.753906 245.679688 96.585938 C 246.117188 95.371094 246.285156 94.078125 246.300781 92.785156 C 246.332031 91.507812 246.210938 90.214844 245.929688 88.964844 C 245.867188 88.6875 245.804688 88.421875 245.710938 88.15625 C 246.054688 87.285156 246.257812 86.363281 246.363281 85.445312 C 246.503906 84.246094 246.441406 83.015625 246.316406 81.832031 C 246.179688 80.601562 245.945312 79.355469 245.476562 78.199219 C 245.132812 77.328125 244.683594 76.535156 244.136719 75.785156 C 243.574219 75.007812 242.90625 74.320312 242.207031 73.683594 C 241.878906 73.386719 241.535156 73.105469 241.191406 72.839844 C 240.941406 72.65625 240.695312 72.453125 240.445312 72.28125 C 240.195312 72.09375 239.882812 72 239.601562 71.890625 C 239.433594 71.828125 239.246094 71.796875 239.058594 71.765625 C 238.824219 71.734375 238.605469 71.703125 238.371094 71.703125 C 238.355469 71.640625 238.308594 71.640625 238.277344 71.640625 Z M 241.347656 86.519531 C 241.519531 86.550781 241.691406 86.597656 241.847656 86.660156 C 242.050781 86.769531 242.25 86.878906 242.4375 87.003906 C 242.59375 87.128906 242.734375 87.269531 242.859375 87.425781 C 243 87.625 243.125 87.828125 243.25 88.046875 C 243.078125 88.359375 242.890625 88.671875 242.671875 88.964844 C 242.421875 89.277344 242.144531 89.574219 241.832031 89.839844 C 241.472656 90.089844 241.082031 90.304688 240.679688 90.476562 C 240.179688 90.664062 239.664062 90.804688 239.136719 90.882812 C 238.949219 90.898438 238.761719 90.914062 238.574219 90.898438 C 238.433594 90.867188 238.308594 90.835938 238.171875 90.789062 C 238.109375 90.757812 238.0625 90.726562 238 90.695312 C 237.953125 90.648438 237.890625 90.585938 237.84375 90.539062 C 237.71875 90.351562 237.609375 90.152344 237.515625 89.949219 C 237.4375 89.730469 237.375 89.496094 237.328125 89.277344 C 237.3125 89.027344 237.3125 88.78125 237.328125 88.53125 C 237.359375 88.40625 237.375 88.296875 237.421875 88.171875 C 237.484375 88.03125 237.5625 87.90625 237.65625 87.78125 C 237.8125 87.59375 238 87.425781 238.1875 87.253906 C 238.402344 87.097656 238.636719 86.972656 238.871094 86.863281 C 239.261719 86.707031 239.664062 86.597656 240.070312 86.535156 C 240.492188 86.503906 240.910156 86.488281 241.347656 86.519531 Z M 241.347656 86.519531 " fill-opacity="1" fill-rule="nonzero"/></g><g clip-path="url(#cad2392df6)"><path fill="#ffffff" d="M 148.710938 72.421875 C 148.011719 72.421875 147.324219 72.546875 146.640625 72.6875 C 146.25 72.761719 145.875 72.917969 145.546875 73.136719 C 145.316406 73.292969 145.066406 73.480469 144.878906 73.683594 C 144.535156 74.058594 144.253906 74.492188 144.144531 74.992188 C 144.457031 75.148438 144.785156 75.257812 145.128906 75.335938 C 145.46875 75.398438 145.8125 75.429688 146.15625 75.445312 C 146.734375 75.457031 147.292969 75.320312 147.855469 75.226562 C 148.648438 75.148438 149.445312 75.195312 150.238281 75.289062 C 150.675781 75.351562 151.09375 75.445312 151.53125 75.535156 C 152.015625 75.644531 152.480469 75.816406 152.964844 75.910156 C 153.277344 75.972656 153.585938 76.003906 153.898438 76.019531 C 154.179688 76.035156 154.460938 75.972656 154.726562 75.941406 C 155.113281 75.894531 155.519531 75.722656 155.847656 75.503906 C 155.722656 74.992188 155.410156 74.570312 155.066406 74.179688 C 154.820312 73.886719 154.476562 73.652344 154.148438 73.449219 C 153.789062 73.230469 153.371094 73.121094 152.980469 72.996094 C 152.308594 72.808594 151.640625 72.6875 150.953125 72.578125 C 150.238281 72.46875 149.503906 72.40625 148.789062 72.40625 C 148.773438 72.421875 148.742188 72.421875 148.710938 72.421875 Z M 148.710938 72.421875 " fill-opacity="1" fill-rule="nonzero"/></g><path fill="#ffffff" d="M 238.046875 67.140625 C 237.875 67.328125 237.734375 67.542969 237.59375 67.746094 C 237.46875 67.933594 237.359375 68.152344 237.234375 68.355469 C 237.03125 68.699219 236.816406 69.023438 236.582031 69.335938 C 236.175781 69.820312 235.722656 70.253906 235.335938 70.769531 C 235.007812 71.191406 234.773438 71.65625 234.570312 72.140625 C 234.570312 72.140625 234.570312 72.125 234.585938 72.125 C 234.570312 72.171875 234.554688 72.203125 234.539062 72.25 C 234.539062 72.25 234.539062 72.265625 234.539062 72.265625 C 234.539062 72.265625 234.539062 72.265625 234.539062 72.25 C 234.476562 72.40625 234.429688 72.5625 234.382812 72.71875 C 234.804688 72.980469 235.335938 73.058594 235.816406 73.011719 C 236.378906 72.964844 236.9375 72.777344 237.40625 72.453125 C 237.859375 72.140625 238.214844 71.734375 238.574219 71.316406 C 238.917969 70.894531 239.246094 70.457031 239.539062 70.007812 C 239.835938 69.554688 240.101562 69.085938 240.273438 68.558594 C 240.367188 68.277344 240.382812 67.980469 240.414062 67.683594 C 240.429688 67.464844 240.414062 67.25 240.382812 67.046875 C 240.335938 66.640625 240.242188 66.25 240.023438 65.894531 C 239.214844 66.0625 238.542969 66.5625 238.046875 67.140625 Z M 238.046875 67.140625 " fill-opacity="1" fill-rule="nonzero"/><g clip-path="url(#274c3c3816)"><path fill="#4f4e6b" d="M 190.722656 111.378906 C 190.628906 111.632812 187.617188 117.585938 186.707031 119.144531 C 185.402344 119.195312 176.554688 119.085938 175.585938 119.144531 C 174.160156 116.820312 171.1875 112.289062 170.628906 111.296875 C 171.054688 110.480469 174.390625 105.078125 175.191406 104.007812 C 177.273438 104.027344 184.25 104.089844 185.664062 104.140625 C 185.859375 104.292969 190.539062 110.996094 190.722656 111.378906 Z M 215.433594 104.007812 C 213.625 104.140625 205.34375 104.140625 204.957031 104.140625 C 204.847656 104.269531 201.074219 109.570312 199.914062 111.390625 C 200.265625 112.078125 204.039062 119.195312 204.1875 119.226562 C 204.441406 119.285156 214.734375 119.316406 214.917969 119.285156 C 215.746094 117.980469 220.023438 111.53125 220.09375 111.390625 C 218.539062 108.660156 217.089844 106.457031 215.433594 104.007812 Z M 215.433594 104.007812 " fill-opacity="1" fill-rule="nonzero"/></g><g clip-path="url(#221c368f8f)"><path fill="#5b5b85" d="M 190.589844 111.773438 C 189.902344 113.3125 186.910156 118.984375 186.839844 119.023438 C 186.746094 119.0625 175.957031 119.476562 175.714844 119.15625 C 175.371094 118.699219 173.652344 116.253906 172.863281 115.019531 C 177.503906 112.746094 183.199219 111.359375 189.789062 110.863281 C 190.042969 110.824219 190.894531 111.449219 190.589844 111.773438 Z M 200.042969 111.773438 C 200.730469 113.289062 203.199219 118.476562 203.664062 119.023438 C 203.714844 119.085938 213.753906 119.144531 214.269531 119.15625 C 214.644531 119.164062 214.9375 119.226562 215.179688 118.890625 C 215.523438 118.4375 216.941406 116.648438 217.636719 115.554688 C 213.058594 113.167969 207.101562 111.5 200.449219 110.914062 C 200.246094 110.894531 199.8125 111.449219 200.042969 111.773438 Z M 200.042969 111.773438 " fill-opacity="1" fill-rule="nonzero"/></g><g clip-path="url(#67df5f9bd3)"><path fill="#ffffff" d="M 220.519531 111.148438 C 220.214844 110.339844 216.738281 104.886719 215.808594 103.542969 C 215.808594 103.542969 215.796875 103.53125 215.796875 103.53125 C 215.6875 103.351562 215.492188 103.230469 215.210938 103.230469 C 211.863281 103.28125 209.8125 103.3125 205.058594 103.402344 C 204.855469 103.410156 204.53125 103.441406 204.351562 103.703125 C 203.542969 104.886719 202.742188 106.082031 201.976562 107.285156 C 199.265625 107.234375 190.894531 107.324219 188.667969 107.34375 C 187.878906 106.121094 187.070312 104.90625 186.253906 103.703125 C 186.070312 103.441406 185.847656 103.410156 185.542969 103.402344 C 185.515625 103.402344 178.738281 103.28125 175.382812 103.238281 C 175.097656 103.238281 174.90625 103.359375 174.796875 103.542969 C 174.796875 103.542969 174.785156 103.554688 174.785156 103.554688 C 173.867188 104.886719 170.378906 110.347656 170.085938 111.148438 C 170.074219 111.167969 170.074219 111.1875 170.074219 111.207031 C 170.023438 111.8125 173.550781 117.042969 174.25 118.132812 C 174.5625 118.628906 174.847656 119.183594 175.199219 119.648438 C 175.453125 119.984375 175.785156 119.933594 176.171875 119.933594 C 176.707031 119.921875 184.785156 119.75 186.6875 119.699219 C 186.789062 119.699219 186.910156 119.679688 187 119.640625 C 187.070312 119.609375 187.140625 119.558594 187.191406 119.5 C 187.667969 118.941406 190.367188 113.433594 191.066406 111.90625 C 191.066406 111.90625 192.785156 110.023438 192.976562 109.832031 C 193.371094 109.832031 196.210938 109.820312 198 109.871094 C 198.222656 110.167969 199.589844 111.996094 199.648438 112.085938 C 200.316406 113.542969 202.957031 118.941406 203.429688 119.5 C 203.480469 119.558594 203.550781 119.609375 203.625 119.640625 C 203.714844 119.679688 203.835938 119.699219 203.9375 119.699219 C 205.835938 119.75 213.917969 119.921875 214.453125 119.933594 C 214.835938 119.945312 215.179688 119.984375 215.421875 119.648438 C 215.777344 119.183594 220.589844 111.8125 220.550781 111.207031 C 220.527344 111.1875 220.527344 111.167969 220.519531 111.148438 Z M 195.332031 108.144531 C 197.3125 108.132812 199.324219 108.152344 201.328125 108.144531 C 201.367188 108.144531 201.398438 108.195312 201.378906 108.226562 C 200.84375 109.0625 200.316406 109.902344 199.800781 110.753906 C 199.800781 110.753906 199.789062 110.742188 199.789062 110.742188 C 198.921875 109.417969 198.597656 108.972656 198.488281 108.890625 C 198.34375 108.8125 192.378906 108.914062 192.328125 108.953125 C 192.289062 108.984375 191.054688 110.519531 190.851562 110.773438 C 190.84375 110.78125 190.84375 110.78125 190.832031 110.792969 C 190.304688 109.933594 189.769531 109.074219 189.226562 108.226562 C 189.203125 108.183594 189.226562 108.144531 189.273438 108.144531 C 191.296875 108.144531 193.308594 108.144531 195.332031 108.144531 Z M 188.101562 115.089844 C 187.757812 115.738281 187.425781 116.382812 187.089844 117.03125 C 186.847656 117.507812 186.6875 117.851562 186.34375 118.488281 C 184.511719 118.46875 182.691406 118.445312 180.863281 118.425781 C 179.890625 118.417969 178.789062 118.355469 175.867188 118.40625 C 174.351562 116.03125 172.804688 113.675781 171.257812 111.320312 C 171.257812 111.296875 171.914062 110.277344 172.226562 109.78125 C 172.613281 109.175781 173.007812 108.578125 173.378906 107.972656 C 174.046875 106.890625 174.714844 105.808594 175.332031 104.695312 C 175.351562 104.695312 175.363281 104.695312 175.382812 104.695312 C 178.6875 104.757812 182.003906 104.796875 185.3125 104.835938 C 186.839844 107.113281 188.40625 109.347656 190.035156 111.550781 C 189.367188 112.722656 188.730469 113.90625 188.101562 115.089844 Z M 214.734375 118.40625 C 211.8125 118.367188 210.710938 118.417969 209.742188 118.425781 C 207.910156 118.445312 206.089844 118.46875 204.261719 118.488281 C 204.089844 118.164062 203.96875 117.921875 203.84375 117.6875 C 203.734375 117.464844 203.632812 117.265625 203.511719 117.019531 C 203.179688 116.375 202.84375 115.726562 202.5 115.082031 C 201.863281 113.898438 201.226562 112.714844 200.558594 111.542969 C 202.1875 109.335938 203.765625 107.101562 205.28125 104.828125 C 208.585938 104.785156 211.902344 104.746094 215.210938 104.6875 C 215.230469 104.6875 215.242188 104.6875 215.261719 104.6875 C 215.886719 105.796875 216.546875 106.878906 217.210938 107.972656 C 217.585938 108.578125 217.980469 109.175781 218.367188 109.78125 C 218.679688 110.277344 219.335938 111.296875 219.335938 111.320312 C 217.800781 113.675781 216.261719 116.03125 214.734375 118.40625 Z M 214.734375 118.40625 " fill-opacity="1" fill-rule="nonzero"/></g></svg>